M48
METRIC,0000.00
T01C0.4
T02C1.1
T03C1.6
%
T01
X+001648Y+002109
X+001648Y+001600
X+002432Y+001764
X+001996Y+004014
X+001841Y+005080
X+001952Y+005223
X+002032Y+005874
X+002191Y+005874
X+002381Y+005842
X+002480Y+006139
X+001924Y+006052
X+001856Y+005872
T02
X+001445Y+001220
X+001445Y+001474
X+001191Y+001474
X+001191Y+001220
X+001191Y+001728
X+001191Y+001982
X+001445Y+001982
X+001445Y+001728
X+001445Y+002236
X+001445Y+002490
X+001445Y+002744
X+001191Y+002744
X+001191Y+002490
X+001191Y+002236
X+001191Y+002998
X+001191Y+003252
X+001191Y+003506
X+001445Y+003506
X+001445Y+003252
X+001445Y+002998
X+001445Y+003760
X+001445Y+004014
X+001445Y+004268
X+001191Y+004268
X+001191Y+004014
X+001191Y+003760
X+001191Y+004522
X+001191Y+004776
X+001191Y+005030
X+001445Y+005030
X+001445Y+004776
X+001445Y+004522
X+001445Y+005284
X+001445Y+005538
X+001191Y+005538
X+001191Y+005284
X+001191Y+005792
X+001191Y+006046
X+001445Y+006046
X+001445Y+005792
T03
X+002170Y+005588
X+002170Y+004572
T00
M30
