G04 DipTrace 2.4.0.2*
%INBottom.gbr*%
%MOMM*%
%ADD14C,0.3*%
%ADD19R,1.7X1.7*%
%ADD20C,1.7*%
%ADD30C,0.8*%
%FSLAX53Y53*%
G04*
G71*
G90*
G75*
G01*
%LNBottom*%
%LPD*%
X17780Y51529D2*
D14*
X19960Y49349D1*
Y41376D1*
X23000Y61532D2*
Y12155D1*
X14500D1*
X14453Y12201D1*
X11913Y60461D2*
X13372Y61920D1*
X19200D1*
X11913Y57921D2*
X13142Y59150D1*
X16192D1*
X17780Y60738D1*
X19208D1*
X11913Y55381D2*
X13142Y56610D1*
X15239D1*
X16192Y57562D1*
Y58039D1*
X17673Y59520D1*
X19200D1*
X18573Y56610D2*
X20250D1*
X26510D2*
Y14695D1*
X16986Y56610D2*
Y24857D1*
X15716Y23586D1*
X13138D1*
X11913Y22361D1*
X13175Y54170D2*
Y26760D1*
X12540Y26125D1*
X10953D1*
X10476Y25649D1*
Y20727D1*
X11382Y19821D1*
X11913D1*
D30*
X17780Y51529D3*
X19960Y41376D3*
X23000Y61532D3*
X19200Y61920D3*
X19208Y60738D3*
X19200Y59520D3*
X18573Y56610D3*
X20250D3*
X26510D3*
Y14695D3*
X16986Y56610D3*
X13175Y54170D3*
D19*
X14453Y12201D3*
D20*
X11913D3*
X14453Y14741D3*
X11913D3*
X14453Y17281D3*
X11913D3*
X14453Y19821D3*
X11913D3*
X14453Y22361D3*
X11913D3*
X14453Y24901D3*
X11913D3*
X14453Y27441D3*
X11913D3*
X14453Y29981D3*
X11913D3*
X14453Y32521D3*
X11913D3*
X14453Y35061D3*
X11913D3*
X14453Y37601D3*
X11913D3*
X14453Y40141D3*
X11913D3*
X14453Y42681D3*
X11913D3*
X14453Y45221D3*
X11913D3*
X14453Y47761D3*
X11913D3*
X14453Y50301D3*
X11913D3*
X14453Y52841D3*
X11913D3*
X14453Y55381D3*
X11913D3*
X14453Y57921D3*
X11913D3*
X14453Y60461D3*
X11913D3*
M02*
