G04 DipTrace 2.4.0.2*
%INBottom.gbr*%
%MOMM*%
%ADD14C,0.3*%
%ADD15C,0.2*%
%ADD18R,1.7X1.7*%
%ADD19C,1.7*%
%ADD27C,0.8*%
%FSLAX53Y53*%
G04*
G71*
G90*
G75*
G01*
%LNBottom*%
%LPD*%
X16480Y21093D2*
D14*
Y16000D1*
X18414Y50799D2*
X19960Y49252D1*
Y40139D1*
X19240Y60520D2*
D15*
X20112Y61392D1*
X24800D1*
X14453Y55381D2*
D14*
X14474Y55403D1*
X18573D1*
X19366Y56196D1*
Y59212D1*
X19843Y59689D1*
X21589D1*
X21906Y59371D1*
Y58736D1*
X14453Y52841D2*
X14474Y52863D1*
X17620D1*
X20319Y55561D1*
Y58736D1*
X11913Y50301D2*
X13175Y51563D1*
Y58736D1*
X13651Y59212D1*
X15556D1*
X16049Y58720D1*
X18560D1*
X19525Y52227D2*
X23335Y48417D1*
Y40163D1*
X24320Y39178D1*
Y17640D1*
X23813Y58417D2*
X24129Y58101D1*
Y49211D1*
X23335Y48417D1*
D27*
X16480Y21093D3*
Y16000D3*
X18414Y50799D3*
X19960Y40139D3*
X19240Y60520D3*
X24800Y61392D3*
X21906Y58736D3*
X20319D3*
X18560Y58720D3*
X19525Y52227D3*
X24320Y17640D3*
X23813Y58417D3*
D18*
X14453Y12201D3*
D19*
X11913D3*
X14453Y14741D3*
X11913D3*
X14453Y17281D3*
X11913D3*
X14453Y19821D3*
X11913D3*
X14453Y22361D3*
X11913D3*
X14453Y24901D3*
X11913D3*
X14453Y27441D3*
X11913D3*
X14453Y29981D3*
X11913D3*
X14453Y32521D3*
X11913D3*
X14453Y35061D3*
X11913D3*
X14453Y37601D3*
X11913D3*
X14453Y40141D3*
X11913D3*
X14453Y42681D3*
X11913D3*
X14453Y45221D3*
X11913D3*
X14453Y47761D3*
X11913D3*
X14453Y50301D3*
X11913D3*
X14453Y52841D3*
X11913D3*
X14453Y55381D3*
X11913D3*
X14453Y57921D3*
X11913D3*
X14453Y60461D3*
X11913D3*
M02*
