G04 DipTrace 2.4.0.2*
%INTop.gbr*%
%MOMM*%
%ADD14C,0.3*%
%ADD15C,0.2*%
%ADD16R,2.0X1.27*%
%ADD18R,1.5X0.9*%
%ADD19R,1.7X1.7*%
%ADD20C,1.7*%
%ADD21R,0.9X0.7*%
%ADD23R,0.45X0.9*%
%ADD24R,0.7X0.9*%
%ADD26R,2.15X1.5*%
%ADD29R,1.6X1.4*%
%ADD30C,0.8*%
%FSLAX53Y53*%
G04*
G71*
G90*
G75*
G01*
%LNTop*%
%LPD*%
X26331Y16289D2*
D14*
Y16132D1*
X18331D1*
Y16289D1*
X11913Y24901D2*
X13175Y23639D1*
Y21729D1*
X13810Y21093D1*
X15239D1*
X17053Y19280D1*
X26160D1*
X26331Y19109D1*
Y16289D1*
X14453Y50301D2*
X15681Y51529D1*
X17780D1*
X19960Y41376D2*
X18207D1*
Y26136D2*
X15759D1*
X14453Y27441D1*
X18207Y28676D2*
X15759D1*
X14453Y29981D1*
X11913D2*
X13148Y31216D1*
X18207D1*
X26467Y23596D2*
X25669Y22798D1*
Y20101D1*
X11913Y32521D2*
X13148Y33756D1*
X18207D1*
X11913Y37601D2*
X13219Y36296D1*
X18207D1*
X26331Y11789D2*
X18331D1*
X16986Y13433D2*
X18331Y12087D1*
Y11789D1*
X24419Y61532D2*
X23000D1*
X21580Y59785D2*
X21626Y59832D1*
X24419D1*
X21580Y60738D2*
Y60680D1*
X25600D1*
X26448Y59832D1*
X27519D1*
X21580Y61690D2*
D15*
Y62065D1*
X21875Y62360D1*
X25320D1*
X26148Y61532D1*
D14*
X27519D1*
X19200Y61920D2*
Y61690D1*
X20280D1*
X19208Y60738D2*
X20280D1*
X19200Y59520D2*
Y59785D1*
X20280D1*
X26467Y26136D2*
X25296D1*
X24869Y25709D1*
Y20101D1*
X11913Y17281D2*
X13145Y18513D1*
X18982D1*
Y18401D1*
X19782D1*
X20582D1*
X21382D1*
X23269D1*
X24069D1*
X24869D1*
X25669D1*
X11913Y17281D2*
X13222Y15973D1*
X15081D1*
X16321Y14733D1*
X16986D1*
X16626Y57880D2*
X17780D1*
X18573Y57086D1*
Y56610D1*
X20250D2*
X20360Y56720D1*
Y57520D1*
X20760Y57920D1*
X25200D1*
X26510Y56610D1*
Y14695D2*
X16949D1*
X16986Y14733D1*
X26467Y28676D2*
X24767D1*
X24069Y27978D1*
Y20101D1*
X26467Y31216D2*
X24767D1*
X23269Y29718D1*
Y20101D1*
X26467Y33756D2*
X24767D1*
X22541Y31531D1*
Y22224D1*
X21382Y21065D1*
Y20101D1*
X26467Y36296D2*
X24766D1*
X21748Y33277D1*
Y22541D1*
X20582Y21376D1*
Y20101D1*
X26467Y38836D2*
X24766D1*
X20954Y35024D1*
Y22859D1*
X19782Y21687D1*
Y20101D1*
X26467Y41376D2*
X24776D1*
X20160Y36760D1*
Y23116D1*
X18982Y21938D1*
Y20101D1*
X14453Y47761D2*
X13175Y46483D1*
Y39312D1*
X13651Y38836D1*
X18207D1*
Y23596D2*
X15759D1*
X14453Y24901D1*
X18097Y60262D2*
Y59468D1*
X19440Y58125D1*
Y51920D1*
X17780Y50260D1*
X16626D1*
X18097Y61214D2*
Y61572D1*
X17502Y62167D1*
X11151D1*
D15*
X10360Y61375D1*
Y49939D1*
X11310Y48989D1*
D14*
X15357D1*
X16626Y47720D1*
X16797Y60262D2*
Y60073D1*
X15874Y59150D1*
X13652D1*
X13175Y58674D1*
Y57245D1*
X13810Y56610D1*
X16986D1*
X16797Y61214D2*
D15*
X16321Y61690D1*
X11280D1*
X10760Y61170D1*
Y54610D1*
X11200Y54170D1*
X13175D1*
D30*
X17780Y51529D3*
X19960Y41376D3*
X23000Y61532D3*
X19200Y61920D3*
X19208Y60738D3*
X19200Y59520D3*
X18573Y56610D3*
X20250D3*
X26510D3*
Y14695D3*
X16986Y56610D3*
X13175Y54170D3*
D16*
X16626Y57880D3*
Y55340D3*
Y52800D3*
Y50260D3*
Y47720D3*
Y45180D3*
D18*
X24419Y61532D3*
X27519D3*
X24419Y59832D3*
X27519D3*
D19*
X14453Y12201D3*
D20*
X11913D3*
X14453Y14741D3*
X11913D3*
X14453Y17281D3*
X11913D3*
X14453Y19821D3*
X11913D3*
X14453Y22361D3*
X11913D3*
X14453Y24901D3*
X11913D3*
X14453Y27441D3*
X11913D3*
X14453Y29981D3*
X11913D3*
X14453Y32521D3*
X11913D3*
X14453Y35061D3*
X11913D3*
X14453Y37601D3*
X11913D3*
X14453Y40141D3*
X11913D3*
X14453Y42681D3*
X11913D3*
X14453Y45221D3*
X11913D3*
X14453Y47761D3*
X11913D3*
X14453Y50301D3*
X11913D3*
X14453Y52841D3*
X11913D3*
X14453Y55381D3*
X11913D3*
X14453Y57921D3*
X11913D3*
X14453Y60461D3*
X11913D3*
D21*
X20280Y59785D3*
X21580D3*
X20280Y60738D3*
X21580D3*
X20280Y61690D3*
X21580D3*
D23*
X25669Y20101D3*
X24869D3*
X24069D3*
X23269D3*
Y18401D3*
X24069D3*
X24869D3*
X25669D3*
X21382Y20101D3*
X20582D3*
X19782D3*
X18982D3*
Y18401D3*
X19782D3*
X20582D3*
X21382D3*
D24*
X16986Y13433D3*
Y14733D3*
D21*
X18097Y60262D3*
X16797D3*
X18097Y61214D3*
X16797D3*
D26*
X18207Y41376D3*
Y38836D3*
Y36296D3*
Y33756D3*
Y31216D3*
Y28676D3*
Y26136D3*
Y23596D3*
X26467D3*
Y26136D3*
Y28676D3*
Y31216D3*
Y33756D3*
Y36296D3*
Y38836D3*
Y41376D3*
D29*
X26331Y11789D3*
X18331D3*
X26331Y16289D3*
X18331D3*
M02*
