G04 DipTrace 2.4.0.2*
%INTopPaste.gbr*%
%MOMM*%
%ADD33R,1.95X1.3*%
%ADD35R,1.4X1.2*%
%ADD37R,0.25X0.7*%
%ADD43R,0.8X0.9*%
%ADD45R,1.8X1.07*%
%FSLAX53Y53*%
G04*
G71*
G90*
G75*
G01*
%LNTopPaste*%
%LPD*%
D45*
X16626Y57150D3*
Y54610D3*
Y52070D3*
Y49530D3*
Y46990D3*
Y44450D3*
D43*
X23813Y59692D3*
Y61392D3*
X25938Y59692D3*
Y61392D3*
X28063Y59692D3*
Y61392D3*
D37*
X16111Y59689D3*
X16911D3*
X17711D3*
X18511D3*
Y61389D3*
X17711D3*
X16911D3*
X16111D3*
X17131Y17681D3*
X17931D3*
X18731D3*
X19531D3*
Y19381D3*
X18731D3*
X17931D3*
X17131D3*
X27531D3*
X26731D3*
X25931D3*
X25131D3*
Y17681D3*
X25931D3*
X26731D3*
X27531D3*
X23531Y19381D3*
X22731D3*
X21931D3*
X21131D3*
Y17681D3*
X21931D3*
X22731D3*
X23531D3*
X19961Y59689D3*
X20761D3*
X21561D3*
X22361D3*
Y61389D3*
X21561D3*
X20761D3*
X19961D3*
D35*
X26331Y11469D3*
X18331D3*
X26331Y15969D3*
X18331D3*
D33*
X18207Y40139D3*
Y37599D3*
Y35059D3*
Y32519D3*
Y29979D3*
Y27439D3*
Y24899D3*
Y22359D3*
X26467D3*
Y24899D3*
Y27439D3*
Y29979D3*
Y32519D3*
Y35059D3*
Y37599D3*
Y40139D3*
M02*
