M48
METRIC,0000.00
T01C0.4
T02C1.1
T03C1.6
%
T01
X+001778Y+005153
X+001857Y+005661
X+001699Y+005661
X+002025Y+005661
X+001920Y+005952
X+001921Y+006074
X+001920Y+006192
X+002300Y+006153
X+002651Y+005661
X+001318Y+005417
X+001996Y+004138
X+002651Y+001470
T02
X+001445Y+001220
X+001445Y+001474
X+001191Y+001474
X+001191Y+001220
X+001191Y+001728
X+001191Y+001982
X+001445Y+001982
X+001445Y+001728
X+001445Y+002236
X+001445Y+002490
X+001445Y+002744
X+001191Y+002744
X+001191Y+002490
X+001191Y+002236
X+001191Y+002998
X+001191Y+003252
X+001191Y+003506
X+001445Y+003506
X+001445Y+003252
X+001445Y+002998
X+001445Y+003760
X+001445Y+004014
X+001445Y+004268
X+001191Y+004268
X+001191Y+004014
X+001191Y+003760
X+001191Y+004522
X+001191Y+004776
X+001191Y+005030
X+001445Y+005030
X+001445Y+004776
X+001445Y+004522
X+001445Y+005284
X+001445Y+005538
X+001191Y+005538
X+001191Y+005284
X+001191Y+005792
X+001191Y+006046
X+001445Y+006046
X+001445Y+005792
T03
X+002170Y+005661
X+002170Y+004645
T00
M30
