G04 DipTrace 2.4.0.2*
%INTopMask.gbr*%
%MOMM*%
%ADD28C,1.6*%
%ADD32R,2.35X1.7*%
%ADD34R,1.8X1.6*%
%ADD36R,0.65X1.1*%
%ADD38C,1.9*%
%ADD40R,1.9X1.9*%
%ADD42R,1.2X1.3*%
%ADD44R,2.2X1.47*%
%FSLAX53Y53*%
G04*
G71*
G90*
G75*
G01*
%LNTopMask*%
%LPD*%
D44*
X16626Y57150D3*
Y54610D3*
Y52070D3*
Y49530D3*
Y46990D3*
Y44450D3*
D28*
X21696Y55880D3*
Y45720D3*
D42*
X23813Y59692D3*
Y61392D3*
X25938Y59692D3*
Y61392D3*
X28063Y59692D3*
Y61392D3*
D40*
X14453Y12201D3*
D38*
X11913D3*
X14453Y14741D3*
X11913D3*
X14453Y17281D3*
X11913D3*
X14453Y19821D3*
X11913D3*
X14453Y22361D3*
X11913D3*
X14453Y24901D3*
X11913D3*
X14453Y27441D3*
X11913D3*
X14453Y29981D3*
X11913D3*
X14453Y32521D3*
X11913D3*
X14453Y35061D3*
X11913D3*
X14453Y37601D3*
X11913D3*
X14453Y40141D3*
X11913D3*
X14453Y42681D3*
X11913D3*
X14453Y45221D3*
X11913D3*
X14453Y47761D3*
X11913D3*
X14453Y50301D3*
X11913D3*
X14453Y52841D3*
X11913D3*
X14453Y55381D3*
X11913D3*
X14453Y57921D3*
X11913D3*
X14453Y60461D3*
X11913D3*
D36*
X16111Y59689D3*
X16911D3*
X17711D3*
X18511D3*
Y61389D3*
X17711D3*
X16911D3*
X16111D3*
X17131Y17681D3*
X17931D3*
X18731D3*
X19531D3*
Y19381D3*
X18731D3*
X17931D3*
X17131D3*
X27531D3*
X26731D3*
X25931D3*
X25131D3*
Y17681D3*
X25931D3*
X26731D3*
X27531D3*
X23531Y19381D3*
X22731D3*
X21931D3*
X21131D3*
Y17681D3*
X21931D3*
X22731D3*
X23531D3*
X19961Y59689D3*
X20761D3*
X21561D3*
X22361D3*
Y61389D3*
X21561D3*
X20761D3*
X19961D3*
D34*
X26331Y11469D3*
X18331D3*
X26331Y15969D3*
X18331D3*
D32*
X18207Y40139D3*
Y37599D3*
Y35059D3*
Y32519D3*
Y29979D3*
Y27439D3*
Y24899D3*
Y22359D3*
X26467D3*
Y24899D3*
Y27439D3*
Y29979D3*
Y32519D3*
Y35059D3*
Y37599D3*
Y40139D3*
G36*
X26129Y56261D2*
X26149Y56260D1*
X26168D1*
X26187Y56258D1*
X26206Y56257D1*
X26224Y56253D1*
X26242Y56251D1*
X26259Y56246D1*
X26276Y56243D1*
X26325D1*
X26373D1*
X26421D1*
X26469D1*
X26518D1*
X26566D1*
X26614D1*
X26663D1*
X26681D1*
X26700D1*
X26718D1*
X26737D1*
X26755D1*
X26773D1*
X26792D1*
X26811D1*
Y56282D1*
Y56321D1*
Y56360D1*
Y56399D1*
Y56440D1*
Y56479D1*
Y56518D1*
Y56557D1*
X26548D1*
X26285D1*
X26023D1*
X25760D1*
X25497D1*
X25235D1*
X24972D1*
X24709D1*
Y56518D1*
Y56479D1*
Y56440D1*
Y56399D1*
Y56360D1*
Y56321D1*
Y56282D1*
Y56243D1*
X24821D1*
X24932D1*
X25044D1*
X25156D1*
X25267D1*
X25379D1*
X25491D1*
X25602D1*
X25650D1*
X25697D1*
X25745D1*
X25793D1*
X25840D1*
X25888D1*
X25936D1*
X25983D1*
X26000Y56246D1*
X26018Y56251D1*
X26035Y56253D1*
X26053Y56257D1*
X26071Y56258D1*
X26090Y56260D1*
X26109D1*
X26129Y56261D1*
G37*
G36*
X26848Y55821D2*
X26846Y55879D1*
X26837Y55936D1*
X26822Y55991D1*
X26802Y56044D1*
X26776Y56097D1*
X26744Y56146D1*
X26706Y56196D1*
X26663Y56243D1*
X26614D1*
X26566D1*
X26518D1*
X26469D1*
X26421D1*
X26373D1*
X26325D1*
X26276D1*
X26300Y56236D1*
X26323Y56228D1*
X26346Y56218D1*
X26367Y56207D1*
X26388Y56196D1*
X26407Y56183D1*
X26426Y56168D1*
X26444Y56153D1*
X26473Y56126D1*
X26497Y56096D1*
X26518Y56063D1*
X26535Y56029D1*
X26548Y55993D1*
X26557Y55955D1*
X26563Y55915D1*
X26565Y55872D1*
X26563Y55832D1*
X26557Y55794D1*
X26547Y55757D1*
X26534Y55723D1*
X26516Y55690D1*
X26495Y55658D1*
X26470Y55629D1*
X26440Y55602D1*
X26408Y55577D1*
X26374Y55555D1*
X26338Y55536D1*
X26299Y55521D1*
X26258Y55510D1*
X26215Y55502D1*
X26170Y55497D1*
X26122Y55495D1*
X26077Y55497D1*
X26034Y55502D1*
X25992Y55511D1*
X25953Y55522D1*
X25916Y55537D1*
X25880Y55557D1*
X25846Y55579D1*
X25814Y55604D1*
X25786Y55632D1*
X25761Y55661D1*
X25740Y55692D1*
X25722Y55725D1*
X25709Y55760D1*
X25699Y55796D1*
X25694Y55834D1*
X25691Y55873D1*
X25694Y55916D1*
X25699Y55956D1*
X25709Y55994D1*
X25722Y56030D1*
X25739Y56065D1*
X25760Y56096D1*
X25784Y56126D1*
X25813Y56153D1*
X25832Y56168D1*
X25851Y56183D1*
X25871Y56196D1*
X25892Y56207D1*
X25914Y56218D1*
X25936Y56228D1*
X25960Y56236D1*
X25983Y56243D1*
X25936D1*
X25888D1*
X25840D1*
X25793D1*
X25745D1*
X25697D1*
X25650D1*
X25602D1*
X25557Y56195D1*
X25518Y56145D1*
X25486Y56094D1*
X25459Y56042D1*
X25437Y55987D1*
X25423Y55931D1*
X25414Y55875D1*
X25411Y55815D1*
X25414Y55748D1*
X25424Y55682D1*
X25439Y55621D1*
X25461Y55563D1*
X25490Y55506D1*
X25525Y55453D1*
X25566Y55404D1*
X25613Y55357D1*
X25666Y55314D1*
X25722Y55277D1*
X25781Y55245D1*
X25843Y55220D1*
X25908Y55200D1*
X25977Y55185D1*
X26048Y55177D1*
X26123Y55174D1*
X26200Y55177D1*
X26273Y55185D1*
X26343Y55200D1*
X26409Y55220D1*
X26472Y55246D1*
X26532Y55277D1*
X26589Y55315D1*
X26642Y55358D1*
X26690Y55405D1*
X26732Y55456D1*
X26768Y55509D1*
X26797Y55565D1*
X26819Y55624D1*
X26836Y55687D1*
X26845Y55753D1*
X26848Y55821D1*
G37*
G36*
X27579Y53325D2*
X27578Y53346D1*
X27575Y53365D1*
X27571Y53385D1*
X27564Y53403D1*
X27556Y53421D1*
X27545Y53438D1*
X27533Y53454D1*
X27519Y53469D1*
X27504Y53484D1*
X27488Y53496D1*
X27471Y53506D1*
X27453Y53514D1*
X27435Y53521D1*
X27416Y53525D1*
X27397Y53529D1*
X27376Y53530D1*
X27355Y53529D1*
X27335Y53525D1*
X27315Y53521D1*
X27296Y53514D1*
X27279Y53506D1*
X27261Y53496D1*
X27245Y53484D1*
X27230Y53469D1*
X27216Y53454D1*
X27203Y53438D1*
X27193Y53421D1*
X27185Y53403D1*
X27178Y53385D1*
X27174Y53365D1*
X27171Y53345D1*
X27170Y53324D1*
X27171Y53303D1*
X27174Y53283D1*
X27178Y53264D1*
X27185Y53246D1*
X27193Y53229D1*
X27203Y53211D1*
X27216Y53195D1*
X27230Y53180D1*
X27245Y53166D1*
X27261Y53154D1*
X27278Y53143D1*
X27296Y53135D1*
X27315Y53128D1*
X27334Y53124D1*
X27354Y53121D1*
X27375Y53120D1*
X27396Y53121D1*
X27416Y53124D1*
X27435Y53128D1*
X27454Y53135D1*
X27471Y53143D1*
X27488Y53154D1*
X27504Y53166D1*
X27519Y53180D1*
X27533Y53195D1*
X27545Y53211D1*
X27556Y53229D1*
X27564Y53247D1*
X27571Y53265D1*
X27575Y53285D1*
X27578Y53304D1*
X27579Y53325D1*
G37*
G36*
X25450Y53482D2*
Y53443D1*
Y53403D1*
Y53364D1*
Y53325D1*
Y53286D1*
Y53246D1*
Y53207D1*
Y53168D1*
X25620D1*
X25790D1*
X25960D1*
X26130D1*
X26300D1*
X26471D1*
X26641D1*
X26811D1*
Y53207D1*
Y53246D1*
Y53286D1*
Y53325D1*
Y53364D1*
Y53403D1*
Y53443D1*
Y53482D1*
X26641D1*
X26471D1*
X26300D1*
X26130D1*
X25960D1*
X25790D1*
X25620D1*
X25450D1*
G37*
G36*
X26565Y48239D2*
X26561Y48179D1*
X26549Y48125D1*
X26529Y48077D1*
X26502Y48034D1*
X26466Y47997D1*
X26423Y47966D1*
X26372Y47941D1*
X26313Y47922D1*
Y47963D1*
Y48003D1*
Y48043D1*
Y48084D1*
Y48124D1*
Y48164D1*
Y48204D1*
Y48245D1*
X26281D1*
X26249D1*
X26217D1*
X26185D1*
X26153D1*
X26120D1*
X26088D1*
X26056D1*
Y48164D1*
Y48084D1*
Y48003D1*
Y47922D1*
Y47842D1*
Y47760D1*
Y47680D1*
Y47599D1*
X26066D1*
X26075D1*
X26084D1*
X26093D1*
X26103D1*
X26112Y47598D1*
X26121D1*
X26130D1*
X26212Y47600D1*
X26289Y47608D1*
X26362Y47622D1*
X26431Y47642D1*
X26494Y47666D1*
X26553Y47696D1*
X26607Y47730D1*
X26657Y47772D1*
X26702Y47817D1*
X26741Y47866D1*
X26774Y47919D1*
X26800Y47977D1*
X26821Y48038D1*
X26836Y48103D1*
X26845Y48172D1*
X26848Y48245D1*
X26813D1*
X26777D1*
X26742D1*
X26706D1*
X26671D1*
X26635D1*
X26600D1*
X26564D1*
D1*
Y48244D1*
X26565Y48242D1*
D1*
Y48241D1*
D1*
Y48240D1*
Y48239D1*
G37*
G36*
X25747Y48024D2*
X25734Y48044D1*
X25723Y48065D1*
X25713Y48087D1*
X25706Y48111D1*
X25699Y48137D1*
X25695Y48162D1*
X25693Y48190D1*
X25691Y48218D1*
X25693Y48255D1*
X25698Y48291D1*
X25705Y48324D1*
X25716Y48355D1*
X25730Y48385D1*
X25747Y48414D1*
X25766Y48440D1*
X25789Y48466D1*
X25815Y48489D1*
X25843Y48508D1*
X25873Y48527D1*
X25906Y48542D1*
X25940Y48553D1*
X25977Y48564D1*
X26015Y48570D1*
X26056Y48575D1*
Y48534D1*
Y48492D1*
Y48451D1*
Y48409D1*
Y48369D1*
Y48328D1*
Y48286D1*
Y48245D1*
X26088D1*
X26120D1*
X26153D1*
X26185D1*
X26217D1*
X26249D1*
X26281D1*
X26313D1*
Y48284D1*
Y48322D1*
Y48361D1*
Y48399D1*
Y48438D1*
Y48476D1*
Y48515D1*
Y48553D1*
X26328Y48550D1*
X26342Y48545D1*
X26356Y48541D1*
X26369Y48535D1*
X26382Y48529D1*
X26394Y48522D1*
X26406Y48516D1*
X26418Y48509D1*
X26429Y48501D1*
X26440Y48493D1*
X26451Y48485D1*
X26461Y48476D1*
X26471Y48468D1*
X26480Y48459D1*
X26489Y48448D1*
X26497Y48438D1*
X26505Y48428D1*
X26512Y48417D1*
X26519Y48406D1*
X26526Y48394D1*
X26532Y48383D1*
X26537Y48371D1*
X26543Y48359D1*
X26547Y48347D1*
X26551Y48335D1*
X26555Y48323D1*
X26558Y48310D1*
X26560Y48298D1*
X26562Y48285D1*
X26563Y48271D1*
X26564Y48259D1*
Y48245D1*
X26600D1*
X26635D1*
X26671D1*
X26706D1*
X26742D1*
X26777D1*
X26813D1*
X26848D1*
D1*
D1*
Y48246D1*
D1*
D1*
D1*
D1*
D1*
X26845Y48318D1*
X26836Y48387D1*
X26821Y48453D1*
X26799Y48514D1*
X26772Y48573D1*
X26738Y48627D1*
X26697Y48678D1*
X26651Y48724D1*
X26599Y48766D1*
X26544Y48802D1*
X26484Y48833D1*
X26421Y48858D1*
X26354Y48878D1*
X26283Y48892D1*
X26208Y48900D1*
X26129Y48903D1*
X26049Y48900D1*
X25974Y48892D1*
X25903Y48877D1*
X25836Y48857D1*
X25772Y48831D1*
X25713Y48800D1*
X25658Y48762D1*
X25606Y48719D1*
X25561Y48671D1*
X25521Y48619D1*
X25487Y48564D1*
X25460Y48504D1*
X25438Y48442D1*
X25423Y48375D1*
X25414Y48303D1*
X25411Y48230D1*
Y48203D1*
X25412Y48177D1*
X25414Y48152D1*
X25416Y48127D1*
X25419Y48103D1*
X25424Y48079D1*
X25428Y48055D1*
X25433Y48033D1*
X25439Y48010D1*
X25446Y47988D1*
X25453Y47966D1*
X25462Y47944D1*
X25471Y47924D1*
X25481Y47903D1*
X25492Y47883D1*
X25504Y47864D1*
X25516Y47844D1*
X25529Y47825D1*
X25544Y47806D1*
X25558Y47788D1*
X25574Y47769D1*
X25591Y47751D1*
X25608Y47734D1*
X25627Y47716D1*
X25646Y47699D1*
X25666Y47683D1*
X25687Y47667D1*
X25709Y47650D1*
X25732Y47634D1*
X25756Y47619D1*
X25780Y47602D1*
X25806Y47586D1*
X25824Y47620D1*
X25843Y47653D1*
X25862Y47687D1*
X25880Y47720D1*
X25899Y47753D1*
X25917Y47786D1*
X25936Y47819D1*
X25954Y47852D1*
X25918Y47876D1*
X25885Y47899D1*
X25854Y47921D1*
X25827Y47943D1*
X25803Y47965D1*
X25781Y47985D1*
X25763Y48005D1*
X25747Y48024D1*
G37*
G36*
X26278Y50410D2*
X26270Y50407D1*
X26261Y50405D1*
X26253Y50403D1*
X26244Y50402D1*
X26235Y50399D1*
X26226Y50398D1*
X26217Y50397D1*
X26208Y50396D1*
Y50395D1*
X26207D1*
X26206D1*
D1*
X26205D1*
D1*
D1*
X26204D1*
X26200D1*
X26196Y50394D1*
X26191D1*
X26187Y50392D1*
X26182D1*
X26178D1*
X26174Y50391D1*
X26169D1*
D1*
X26168D1*
X26167D1*
D1*
X26166D1*
X26165D1*
D1*
X26164D1*
X26160D1*
X26155D1*
X26150Y50390D1*
X26146D1*
X26141D1*
X26137D1*
X26132D1*
X26128D1*
X26123D1*
X26118D1*
X26113D1*
X26109D1*
X26104D1*
X26100Y50391D1*
X26095D1*
X26091D1*
X26090D1*
X26089D1*
D1*
X26088D1*
D1*
X26087D1*
X26086D1*
X26085D1*
X26081D1*
X26076Y50392D1*
X26072D1*
X26068D1*
X26064Y50394D1*
X26059D1*
X26055Y50395D1*
X26051D1*
X26050D1*
D1*
X26049D1*
D1*
X26048D1*
D1*
X26047D1*
Y50396D1*
X26038Y50397D1*
X26029Y50398D1*
X26020Y50399D1*
X26011Y50402D1*
X26002Y50403D1*
X25994Y50405D1*
X25985Y50407D1*
X25977Y50410D1*
X25929D1*
X25881D1*
X25833D1*
X25784D1*
X25737D1*
X25688D1*
X25641D1*
X25592D1*
X25575D1*
X25557D1*
X25539D1*
X25521D1*
X25503D1*
X25486D1*
X25468D1*
X25450D1*
Y50371D1*
Y50330D1*
Y50291D1*
Y50252D1*
Y50212D1*
Y50173D1*
Y50134D1*
Y50094D1*
X25745D1*
X26040D1*
X26335D1*
X26630D1*
X26925D1*
X27220D1*
X27515D1*
X27810D1*
Y50134D1*
Y50173D1*
Y50212D1*
Y50252D1*
Y50291D1*
Y50330D1*
Y50371D1*
Y50410D1*
X27665D1*
X27521D1*
X27376D1*
X27231D1*
X27087D1*
X26942D1*
X26797D1*
X26652D1*
X26606D1*
X26559D1*
X26512D1*
X26466D1*
X26419D1*
X26372D1*
X26325D1*
X26278D1*
G37*
G36*
X25911Y50434D2*
X25910D1*
D1*
X25909Y50435D1*
D1*
X25908D1*
D1*
D1*
X25907D1*
X25905Y50436D1*
X25903Y50437D1*
X25901Y50439D1*
X25899Y50440D1*
X25897Y50441D1*
X25895Y50442D1*
X25893Y50443D1*
X25891D1*
X25890Y50444D1*
D1*
X25889Y50445D1*
X25888D1*
X25887D1*
D1*
X25886Y50447D1*
D1*
X25884Y50448D1*
X25882Y50449D1*
X25880Y50450D1*
X25879D1*
X25877Y50451D1*
X25875Y50452D1*
X25873Y50453D1*
X25872Y50455D1*
X25871D1*
X25870Y50456D1*
X25869D1*
X25868D1*
Y50457D1*
X25867D1*
Y50458D1*
X25866D1*
X25864Y50459D1*
X25862Y50460D1*
X25861Y50462D1*
X25859Y50463D1*
X25858Y50464D1*
X25856D1*
X25854Y50465D1*
X25853Y50466D1*
X25852Y50467D1*
X25851D1*
Y50468D1*
X25850D1*
X25849D1*
X25848Y50470D1*
D1*
X25847Y50471D1*
X25845Y50472D1*
X25844Y50473D1*
X25842Y50474D1*
X25840Y50475D1*
X25839Y50477D1*
X25837Y50478D1*
X25836Y50479D1*
X25834Y50480D1*
X25833D1*
Y50481D1*
X25832D1*
X25831Y50482D1*
D1*
X25830D1*
Y50483D1*
X25829D1*
X25827Y50486D1*
X25824Y50487D1*
X25822Y50489D1*
X25820Y50490D1*
X25818Y50493D1*
X25816Y50494D1*
X25814Y50496D1*
X25812Y50497D1*
X25783Y50526D1*
X25759Y50556D1*
X25738Y50588D1*
X25721Y50623D1*
X25708Y50658D1*
X25699Y50696D1*
X25694Y50738D1*
X25691Y50780D1*
X25694Y50820D1*
X25699Y50859D1*
X25709Y50894D1*
X25722Y50930D1*
X25740Y50962D1*
X25761Y50993D1*
X25787Y51023D1*
X25816Y51051D1*
X25848Y51075D1*
X25882Y51097D1*
X25918Y51115D1*
X25957Y51129D1*
X25998Y51141D1*
X26041Y51149D1*
X26087Y51154D1*
X26134Y51156D1*
X26179Y51154D1*
X26222Y51149D1*
X26263Y51141D1*
X26303Y51129D1*
X26340Y51114D1*
X26376Y51096D1*
X26410Y51074D1*
X26442Y51049D1*
X26471Y51020D1*
X26496Y50990D1*
X26517Y50959D1*
X26534Y50927D1*
X26548Y50891D1*
X26557Y50855D1*
X26563Y50817D1*
X26565Y50777D1*
X26563Y50735D1*
X26557Y50695D1*
X26548Y50657D1*
X26534Y50622D1*
X26517Y50587D1*
X26496Y50556D1*
X26472Y50526D1*
X26443Y50497D1*
X26441Y50496D1*
X26439Y50494D1*
X26437Y50493D1*
X26435Y50490D1*
X26432Y50489D1*
X26431Y50487D1*
X26428Y50486D1*
X26426Y50483D1*
X26425D1*
Y50482D1*
X26424D1*
D1*
X26423Y50481D1*
X26422D1*
Y50480D1*
X26421D1*
X26419Y50479D1*
X26418Y50478D1*
X26416Y50477D1*
X26415Y50475D1*
X26413Y50474D1*
X26411Y50473D1*
X26410Y50472D1*
X26408Y50471D1*
X26407Y50470D1*
D1*
X26406Y50468D1*
X26405D1*
X26404D1*
Y50467D1*
X26403D1*
X26402Y50466D1*
X26400Y50465D1*
X26399Y50464D1*
X26397D1*
X26396Y50463D1*
X26394Y50462D1*
X26393Y50460D1*
X26391Y50459D1*
X26389Y50458D1*
X26388D1*
Y50457D1*
X26387D1*
X26386Y50456D1*
D1*
X26385D1*
X26384Y50455D1*
X26383D1*
X26382Y50453D1*
X26380Y50452D1*
X26378Y50451D1*
X26376Y50450D1*
X26375D1*
X26373Y50449D1*
X26371Y50448D1*
X26369Y50447D1*
D1*
X26368Y50445D1*
X26367D1*
D1*
X26366D1*
X26365Y50444D1*
D1*
X26364Y50443D1*
X26362D1*
X26360Y50442D1*
X26358Y50441D1*
X26356Y50440D1*
X26354Y50439D1*
X26352Y50437D1*
X26350Y50436D1*
X26348Y50435D1*
X26347D1*
D1*
X26346D1*
D1*
D1*
X26345Y50434D1*
D1*
X26344D1*
X26336Y50430D1*
X26329Y50427D1*
X26320Y50424D1*
X26312Y50420D1*
X26304Y50418D1*
X26295Y50414D1*
X26287Y50412D1*
X26278Y50410D1*
X26325D1*
X26372D1*
X26419D1*
X26466D1*
X26512D1*
X26559D1*
X26606D1*
X26652D1*
X26698Y50458D1*
X26738Y50508D1*
X26772Y50558D1*
X26799Y50611D1*
X26821Y50665D1*
X26836Y50721D1*
X26845Y50778D1*
X26848Y50837D1*
X26845Y50905D1*
X26836Y50969D1*
X26819Y51030D1*
X26797Y51089D1*
X26768Y51145D1*
X26733Y51197D1*
X26691Y51248D1*
X26643Y51294D1*
X26590Y51337D1*
X26535Y51374D1*
X26476Y51405D1*
X26414Y51432D1*
X26349Y51451D1*
X26280Y51465D1*
X26209Y51474D1*
X26134Y51477D1*
X26058Y51474D1*
X25985Y51465D1*
X25916Y51451D1*
X25849Y51432D1*
X25786Y51405D1*
X25725Y51374D1*
X25668Y51337D1*
X25615Y51294D1*
X25567Y51247D1*
X25526Y51196D1*
X25490Y51143D1*
X25462Y51087D1*
X25439Y51027D1*
X25424Y50965D1*
X25414Y50899D1*
X25411Y50830D1*
X25413Y50772D1*
X25422Y50716D1*
X25436Y50661D1*
X25456Y50608D1*
X25482Y50556D1*
X25513Y50505D1*
X25550Y50457D1*
X25592Y50410D1*
X25641D1*
X25688D1*
X25737D1*
X25784D1*
X25833D1*
X25881D1*
X25929D1*
X25977D1*
X25968Y50412D1*
X25960Y50414D1*
X25951Y50418D1*
X25943Y50420D1*
X25935Y50424D1*
X25926Y50427D1*
X25919Y50430D1*
X25911Y50434D1*
G37*
G36*
X26565Y45700D2*
X26561Y45640D1*
X26549Y45586D1*
X26529Y45538D1*
X26502Y45495D1*
X26466Y45458D1*
X26423Y45427D1*
X26372Y45402D1*
X26313Y45382D1*
Y45423D1*
Y45463D1*
Y45503D1*
Y45543D1*
Y45585D1*
Y45625D1*
Y45665D1*
Y45706D1*
X26281D1*
X26249D1*
X26217D1*
X26185D1*
X26153D1*
X26120D1*
X26088D1*
X26056D1*
Y45625D1*
Y45543D1*
Y45463D1*
Y45382D1*
Y45302D1*
Y45221D1*
Y45141D1*
Y45060D1*
X26066D1*
X26075D1*
X26084Y45059D1*
X26093D1*
X26103D1*
X26112D1*
X26121D1*
X26130D1*
X26212Y45061D1*
X26289Y45069D1*
X26362Y45083D1*
X26431Y45101D1*
X26494Y45127D1*
X26553Y45156D1*
X26607Y45191D1*
X26657Y45231D1*
X26702Y45278D1*
X26741Y45327D1*
X26774Y45380D1*
X26800Y45437D1*
X26821Y45498D1*
X26836Y45564D1*
X26845Y45632D1*
X26848Y45706D1*
X26813D1*
X26777D1*
X26742D1*
X26706D1*
X26671D1*
X26635D1*
X26600D1*
X26564D1*
Y45705D1*
Y45703D1*
X26565D1*
Y45702D1*
D1*
Y45701D1*
D1*
Y45700D1*
G37*
G36*
X25954Y45313D2*
X25918Y45336D1*
X25885Y45359D1*
X25854Y45382D1*
X25827Y45404D1*
X25803Y45425D1*
X25781Y45446D1*
X25763Y45465D1*
X25747Y45485D1*
X25734Y45504D1*
X25723Y45526D1*
X25713Y45548D1*
X25706Y45572D1*
X25699Y45596D1*
X25695Y45623D1*
X25693Y45650D1*
X25691Y45679D1*
X25693Y45716D1*
X25698Y45751D1*
X25705Y45784D1*
X25716Y45816D1*
X25730Y45846D1*
X25747Y45875D1*
X25766Y45901D1*
X25789Y45927D1*
X25815Y45949D1*
X25843Y45969D1*
X25873Y45987D1*
X25906Y46001D1*
X25940Y46014D1*
X25977Y46023D1*
X26015Y46030D1*
X26056Y46035D1*
Y45993D1*
Y45953D1*
Y45912D1*
Y45870D1*
Y45829D1*
Y45787D1*
Y45747D1*
Y45706D1*
X26088D1*
X26120D1*
X26153D1*
X26185D1*
X26217D1*
X26249D1*
X26281D1*
X26313D1*
Y45744D1*
Y45783D1*
Y45821D1*
Y45860D1*
Y45898D1*
Y45937D1*
Y45975D1*
Y46014D1*
X26328Y46010D1*
X26342Y46006D1*
X26356Y46000D1*
X26369Y45996D1*
X26382Y45990D1*
X26394Y45983D1*
X26406Y45976D1*
X26418Y45969D1*
X26429Y45962D1*
X26440Y45954D1*
X26451Y45946D1*
X26461Y45937D1*
X26471Y45928D1*
X26480Y45919D1*
X26489Y45909D1*
X26497Y45899D1*
X26505Y45889D1*
X26512Y45877D1*
X26519Y45867D1*
X26526Y45855D1*
X26532Y45844D1*
X26537Y45832D1*
X26543Y45820D1*
X26547Y45807D1*
X26551Y45795D1*
X26555Y45783D1*
X26558Y45770D1*
X26560Y45757D1*
X26562Y45745D1*
X26563Y45732D1*
X26564Y45718D1*
Y45706D1*
X26600D1*
X26635D1*
X26671D1*
X26706D1*
X26742D1*
X26777D1*
X26813D1*
X26848D1*
D1*
D1*
D1*
D1*
D1*
Y45707D1*
D1*
D1*
X26845Y45779D1*
X26836Y45848D1*
X26821Y45913D1*
X26799Y45975D1*
X26772Y46033D1*
X26738Y46087D1*
X26697Y46137D1*
X26651Y46184D1*
X26599Y46227D1*
X26544Y46263D1*
X26484Y46294D1*
X26421Y46319D1*
X26354Y46339D1*
X26283Y46353D1*
X26208Y46361D1*
X26129Y46364D1*
X26049Y46361D1*
X25974Y46353D1*
X25903Y46338D1*
X25836Y46317D1*
X25772Y46292D1*
X25713Y46259D1*
X25658Y46222D1*
X25606Y46179D1*
X25561Y46132D1*
X25521Y46080D1*
X25487Y46023D1*
X25460Y45965D1*
X25438Y45901D1*
X25423Y45835D1*
X25414Y45764D1*
X25411Y45690D1*
Y45663D1*
X25412Y45638D1*
X25414Y45612D1*
X25416Y45587D1*
X25419Y45563D1*
X25424Y45540D1*
X25428Y45516D1*
X25433Y45493D1*
X25439Y45471D1*
X25446Y45448D1*
X25453Y45427D1*
X25462Y45405D1*
X25471Y45385D1*
X25481Y45364D1*
X25492Y45344D1*
X25504Y45324D1*
X25516Y45304D1*
X25529Y45286D1*
X25544Y45267D1*
X25558Y45248D1*
X25574Y45230D1*
X25591Y45212D1*
X25608Y45195D1*
X25627Y45177D1*
X25646Y45160D1*
X25666Y45144D1*
X25687Y45127D1*
X25709Y45111D1*
X25732Y45094D1*
X25756Y45078D1*
X25780Y45062D1*
X25806Y45047D1*
X25824Y45081D1*
X25843Y45114D1*
X25862Y45147D1*
X25880Y45180D1*
X25899Y45213D1*
X25917Y45246D1*
X25936Y45280D1*
X25954Y45313D1*
G37*
G36*
X25602Y56243D2*
X25983D1*
X25596Y56236D1*
X25602Y56243D1*
G37*
G36*
X26300Y56236D2*
X26663Y56243D1*
X26669Y56236D1*
X26300D1*
G37*
G36*
X25596D2*
X25960D1*
X25588Y56228D1*
X25596Y56236D1*
G37*
G36*
X26323Y56228D2*
X26669Y56236D1*
X26677Y56228D1*
X26323D1*
G37*
G36*
X25588D2*
X25936D1*
X25579Y56218D1*
X25588Y56228D1*
G37*
G36*
X26346Y56218D2*
X26677Y56228D1*
X26685Y56218D1*
X26346D1*
G37*
G36*
X25579D2*
X25914D1*
X25569Y56207D1*
X25579Y56218D1*
G37*
G36*
X26367Y56207D2*
X26685Y56218D1*
X26695Y56207D1*
X26367D1*
G37*
G36*
X25569D2*
X25892D1*
X25558Y56196D1*
X25569Y56207D1*
G37*
G36*
X26388Y56196D2*
X26695Y56207D1*
X26706Y56196D1*
X26388D1*
G37*
G36*
X25558D2*
X25871D1*
X25557Y56195D1*
X25558Y56196D1*
G37*
G36*
X26389Y56195D2*
X26706Y56196D1*
X26707Y56195D1*
X26389D1*
G37*
G36*
X25557D2*
X25870D1*
X25548Y56183D1*
X25557Y56195D1*
G37*
G36*
X26407Y56183D2*
X26707Y56195D1*
X26716Y56183D1*
X26407D1*
G37*
G36*
X25548D2*
X25851D1*
X25537Y56168D1*
X25548Y56183D1*
G37*
G36*
X26426Y56168D2*
X26716Y56183D1*
X26727Y56168D1*
X26426D1*
G37*
G36*
X25537D2*
X25832D1*
X25525Y56153D1*
X25537Y56168D1*
G37*
G36*
X26444Y56153D2*
X26727Y56168D1*
X26739Y56153D1*
X26444D1*
G37*
G36*
X25525D2*
X25813D1*
X25520Y56146D1*
X25525Y56153D1*
G37*
G36*
X26451Y56146D2*
X26739Y56153D1*
X26744Y56146D1*
X26451D1*
G37*
G36*
X25520D2*
X25806D1*
X25518Y56145D1*
X25520Y56146D1*
G37*
G36*
X26453Y56145D2*
X26744Y56146D1*
X26745Y56145D1*
X26453D1*
G37*
G36*
X25518D2*
X25805D1*
X25506Y56126D1*
X25518Y56145D1*
G37*
G36*
X26472Y56126D2*
X26745Y56145D1*
X26757Y56126D1*
X26472D1*
G37*
G36*
X25506D2*
X25784D1*
X25506D1*
D1*
G37*
G36*
X26473D2*
X26757D1*
D1*
X26473D1*
G37*
G36*
X25506D2*
X25784D1*
X25487Y56097D1*
X25506Y56126D1*
G37*
G36*
X26497Y56097D2*
X26758Y56126D1*
X26776Y56097D1*
X26497D1*
G37*
G36*
X25487D2*
X25760D1*
X25487Y56096D1*
Y56097D1*
G37*
G36*
X26497Y56096D2*
X26776Y56097D1*
Y56096D1*
X26497D1*
G37*
G36*
X25487D2*
X25760D1*
X25486D1*
X25487D1*
G37*
G36*
X26497D2*
X26776D1*
D1*
X26497D1*
G37*
G36*
X25486D2*
X25760D1*
X25486Y56094D1*
Y56096D1*
G37*
G36*
X26498Y56094D2*
X26776Y56096D1*
X26777Y56094D1*
X26498D1*
G37*
G36*
X25486D2*
X25759D1*
X25470Y56065D1*
X25486Y56094D1*
G37*
G36*
X26517Y56065D2*
X26777Y56094D1*
X26792Y56065D1*
X26517D1*
G37*
G36*
X25470D2*
X25739D1*
X25470Y56063D1*
Y56065D1*
G37*
G36*
X26518Y56063D2*
X26792Y56065D1*
Y56063D1*
X26518D1*
G37*
G36*
X25470D2*
X25739D1*
X25460Y56044D1*
X25470Y56063D1*
G37*
G36*
X26528Y56044D2*
X26792Y56063D1*
X26802Y56044D1*
X26528D1*
G37*
G36*
X25460D2*
X25729D1*
X25459Y56042D1*
X25460Y56044D1*
G37*
G36*
X26529Y56042D2*
X26802Y56044D1*
X26803Y56042D1*
X26529D1*
G37*
G36*
X25459D2*
X25727D1*
X25454Y56030D1*
X25459Y56042D1*
G37*
G36*
X26534Y56030D2*
X26803Y56042D1*
X26807Y56030D1*
X26534D1*
G37*
G36*
X25454D2*
X25722D1*
X25454Y56029D1*
Y56030D1*
G37*
G36*
X26535Y56029D2*
X26807Y56030D1*
X26808Y56029D1*
X26535D1*
G37*
G36*
X25454D2*
X25721D1*
X25440Y55994D1*
X25454Y56029D1*
G37*
G36*
X26547Y55994D2*
X26808Y56029D1*
X26821Y55994D1*
X26547D1*
G37*
G36*
X25440D2*
X25709D1*
X25440Y55993D1*
Y55994D1*
G37*
G36*
X26548Y55993D2*
X26821Y55994D1*
Y55993D1*
X26548D1*
G37*
G36*
X25440D2*
X25708D1*
X25439Y55991D1*
X25440Y55993D1*
G37*
G36*
X26549Y55991D2*
X26821Y55993D1*
X26822Y55991D1*
X26549D1*
G37*
G36*
X25439D2*
X25708D1*
X25437Y55987D1*
X25439Y55991D1*
G37*
G36*
X26549Y55987D2*
X26822Y55991D1*
X26823Y55987D1*
X26549D1*
G37*
G36*
X25437D2*
X25707D1*
X25429Y55956D1*
X25437Y55987D1*
G37*
G36*
X26557Y55956D2*
X26823Y55987D1*
X26831Y55956D1*
X26557D1*
G37*
G36*
X25429D2*
X25699D1*
X25429Y55955D1*
Y55956D1*
G37*
G36*
X26557Y55955D2*
X26831Y55956D1*
X26832Y55955D1*
X26557D1*
G37*
G36*
X25429D2*
X25699D1*
X25424Y55936D1*
X25429Y55955D1*
G37*
G36*
X26560Y55936D2*
X26832Y55955D1*
X26837Y55936D1*
X26560D1*
G37*
G36*
X25424D2*
X25696D1*
X25423Y55931D1*
X25424Y55936D1*
G37*
G36*
X26560Y55931D2*
X26837Y55936D1*
X26838Y55931D1*
X26560D1*
G37*
G36*
X25423D2*
X25696D1*
X25420Y55916D1*
X25423Y55931D1*
G37*
G36*
X26563Y55916D2*
X26838Y55931D1*
X26840Y55916D1*
X26563D1*
G37*
G36*
X25420D2*
X25694D1*
X25420Y55915D1*
Y55916D1*
G37*
G36*
X26563Y55915D2*
X26840Y55916D1*
Y55915D1*
X26563D1*
G37*
G36*
X25420D2*
X25694D1*
X25415Y55879D1*
X25420Y55915D1*
G37*
G36*
X26564Y55879D2*
X26840Y55915D1*
X26846Y55879D1*
X26564D1*
G37*
G36*
X25415D2*
X25692D1*
X25414Y55875D1*
X25415Y55879D1*
G37*
G36*
X26565Y55875D2*
X26846Y55879D1*
Y55875D1*
X26565D1*
G37*
G36*
X25414D2*
X25691D1*
X25414Y55873D1*
Y55875D1*
G37*
G36*
X26565Y55873D2*
X26846Y55875D1*
Y55873D1*
X26565D1*
G37*
G36*
X25414D2*
X25691D1*
X25414Y55872D1*
Y55873D1*
G37*
G36*
Y55872D2*
X25691Y55873D1*
Y55872D1*
X25414D1*
G37*
G36*
X26565D2*
X26846Y55873D1*
Y55872D1*
X26565D1*
G37*
G36*
X25414D2*
X25691D1*
X25412Y55834D1*
X25414Y55872D1*
G37*
G36*
X25412Y55834D2*
X25691Y55872D1*
X25694Y55834D1*
X25412D1*
G37*
G36*
X26565Y55872D2*
X26846D1*
X26563Y55834D1*
X26565Y55872D1*
G37*
G36*
X26563Y55834D2*
X26846Y55872D1*
X26848Y55834D1*
X26563D1*
G37*
G36*
X25412D2*
X25694D1*
X25411Y55832D1*
X25412Y55834D1*
G37*
G36*
X25411Y55832D2*
X25694Y55834D1*
Y55832D1*
X25411D1*
G37*
G36*
X26563Y55834D2*
X26848D1*
X26563Y55832D1*
Y55834D1*
G37*
G36*
Y55832D2*
X26848Y55834D1*
Y55832D1*
X26563D1*
G37*
G36*
X25411D2*
X25694D1*
X25411Y55821D1*
Y55832D1*
G37*
G36*
Y55821D2*
X25694Y55832D1*
X25695Y55821D1*
X25411D1*
G37*
G36*
X26563Y55832D2*
X26848D1*
X26561Y55821D1*
X26563Y55832D1*
G37*
G36*
X26561Y55821D2*
X26848Y55832D1*
Y55821D1*
X26561D1*
G37*
G36*
X25411D2*
X25695D1*
X25411Y55815D1*
Y55821D1*
G37*
G36*
Y55815D2*
X25695Y55821D1*
X25696Y55815D1*
X25411D1*
G37*
G36*
X26561Y55821D2*
X26848D1*
X26560Y55815D1*
X26561Y55821D1*
G37*
G36*
X25411Y55796D2*
X25696Y55815D1*
X25699Y55796D1*
X25411D1*
G37*
G36*
X26560Y55815D2*
X26848D1*
X26557Y55796D1*
X26560Y55815D1*
G37*
G36*
X25412Y55794D2*
X25699Y55796D1*
X25700Y55794D1*
X25412D1*
G37*
G36*
X26557Y55796D2*
X26847D1*
X26557Y55794D1*
Y55796D1*
G37*
G36*
X25413Y55760D2*
X25700Y55794D1*
X25709Y55760D1*
X25413D1*
G37*
G36*
X26557Y55794D2*
X26847D1*
X26548Y55760D1*
X26557Y55794D1*
G37*
G36*
X25413Y55757D2*
X25709Y55760D1*
Y55757D1*
X25413D1*
G37*
G36*
X26548Y55760D2*
X26846D1*
X26547Y55757D1*
X26548Y55760D1*
G37*
G36*
X25414Y55753D2*
X25709Y55757D1*
X25712Y55753D1*
X25414D1*
G37*
G36*
X26547Y55757D2*
X26845D1*
X26545Y55753D1*
X26547Y55757D1*
G37*
G36*
X25414Y55748D2*
X25712Y55753D1*
X25713Y55748D1*
X25414D1*
G37*
G36*
X26545Y55753D2*
X26845D1*
X26543Y55748D1*
X26545Y55753D1*
G37*
G36*
X25417Y55725D2*
X25713Y55748D1*
X25722Y55725D1*
X25417D1*
G37*
G36*
X26543Y55748D2*
X26844D1*
X26534Y55725D1*
X26543Y55748D1*
G37*
G36*
X25417Y55723D2*
X25722Y55725D1*
X25723Y55723D1*
X25417D1*
G37*
G36*
X26534Y55725D2*
X26841D1*
X26534Y55723D1*
Y55725D1*
G37*
G36*
X25422Y55692D2*
X25723Y55723D1*
X25740Y55692D1*
X25422D1*
G37*
G36*
X26534Y55723D2*
X26841D1*
X26517Y55692D1*
X26534Y55723D1*
G37*
G36*
X25422Y55690D2*
X25740Y55692D1*
X25741Y55690D1*
X25422D1*
G37*
G36*
X26517Y55692D2*
X26836D1*
X26516Y55690D1*
X26517Y55692D1*
G37*
G36*
X25423Y55687D2*
X25741Y55690D1*
X25743Y55687D1*
X25423D1*
G37*
G36*
X26516Y55690D2*
X26836D1*
X26514Y55687D1*
X26516Y55690D1*
G37*
G36*
X25424Y55682D2*
X25743Y55687D1*
X25746Y55682D1*
X25424D1*
G37*
G36*
X26514Y55687D2*
X26835D1*
X26511Y55682D1*
X26514Y55687D1*
G37*
G36*
X25429Y55661D2*
X25746Y55682D1*
X25761Y55661D1*
X25429D1*
G37*
G36*
X26511Y55682D2*
X26834D1*
X26496Y55661D1*
X26511Y55682D1*
G37*
G36*
X25430Y55658D2*
X25761Y55661D1*
X25763Y55658D1*
X25430D1*
G37*
G36*
X26496Y55661D2*
X26829D1*
X26495Y55658D1*
X26496Y55661D1*
G37*
G36*
X25437Y55632D2*
X25763Y55658D1*
X25786Y55632D1*
X25437D1*
G37*
G36*
X26495Y55658D2*
X26828D1*
X26472Y55632D1*
X26495Y55658D1*
G37*
G36*
X25437Y55629D2*
X25785Y55632D1*
X25788Y55629D1*
X25437D1*
G37*
G36*
X26472Y55632D2*
X26821D1*
X26470Y55629D1*
X26472Y55632D1*
G37*
G36*
X25438Y55624D2*
X25788Y55629D1*
X25793Y55624D1*
X25438D1*
G37*
G36*
X26470Y55629D2*
X26821D1*
X26464Y55624D1*
X26470Y55629D1*
G37*
G36*
X25439Y55621D2*
X25793Y55624D1*
X25797Y55621D1*
X25439D1*
G37*
G36*
X26464Y55624D2*
X26819D1*
X26461Y55621D1*
X26464Y55624D1*
G37*
G36*
X25446Y55604D2*
X25797Y55621D1*
X25814Y55604D1*
X25446D1*
G37*
G36*
X26461Y55621D2*
X26818D1*
X26443Y55604D1*
X26461Y55621D1*
G37*
G36*
X25447Y55602D2*
X25814Y55604D1*
X25818Y55602D1*
X25447D1*
G37*
G36*
X26443Y55604D2*
X26812D1*
X26440Y55602D1*
X26443Y55604D1*
G37*
G36*
X25455Y55579D2*
X25818Y55602D1*
X25846Y55579D1*
X25455D1*
G37*
G36*
X26440Y55602D2*
X26811D1*
X26411Y55579D1*
X26440Y55602D1*
G37*
G36*
X25456Y55577D2*
X25846Y55579D1*
X25850Y55577D1*
X25456D1*
G37*
G36*
X26411Y55579D2*
X26802D1*
X26408Y55577D1*
X26411Y55579D1*
G37*
G36*
X25460Y55565D2*
X25850Y55577D1*
X25867Y55565D1*
X25460D1*
G37*
G36*
X26408Y55577D2*
X26801D1*
X26390Y55565D1*
X26408Y55577D1*
G37*
G36*
X25461Y55563D2*
X25867Y55565D1*
X25871Y55563D1*
X25461D1*
G37*
G36*
X26390Y55565D2*
X26797D1*
X26386Y55563D1*
X26390Y55565D1*
G37*
G36*
X25464Y55557D2*
X25871Y55563D1*
X25880Y55557D1*
X25464D1*
G37*
G36*
X26386Y55563D2*
X26795D1*
X26377Y55557D1*
X26386Y55563D1*
G37*
G36*
X25465Y55555D2*
X25880Y55557D1*
X25883Y55555D1*
X25465D1*
G37*
G36*
X26377Y55557D2*
X26792D1*
X26374Y55555D1*
X26377Y55557D1*
G37*
G36*
X25474Y55537D2*
X25883Y55555D1*
X25916Y55537D1*
X25474D1*
G37*
G36*
X26374Y55555D2*
X26792D1*
X26340Y55537D1*
X26374Y55555D1*
G37*
G36*
X25474Y55536D2*
X25915Y55537D1*
X25918Y55536D1*
X25474D1*
G37*
G36*
X26340Y55537D2*
X26783D1*
X26338Y55536D1*
X26340Y55537D1*
G37*
G36*
X25482Y55522D2*
X25918Y55536D1*
X25953Y55522D1*
X25482D1*
G37*
G36*
X26338Y55536D2*
X26782D1*
X26301Y55522D1*
X26338Y55536D1*
G37*
G36*
X25482Y55521D2*
X25953Y55522D1*
X25955Y55521D1*
X25482D1*
G37*
G36*
X26301Y55522D2*
X26775D1*
X26299Y55521D1*
X26301Y55522D1*
G37*
G36*
X25488Y55511D2*
X25955Y55521D1*
X25992Y55511D1*
X25488D1*
G37*
G36*
X26299Y55521D2*
X26775D1*
X26259Y55511D1*
X26299Y55521D1*
G37*
G36*
X25488Y55510D2*
X25992Y55511D1*
X25994Y55510D1*
X25488D1*
G37*
G36*
X26259Y55511D2*
X26769D1*
X26258Y55510D1*
X26259Y55511D1*
G37*
G36*
X25489Y55509D2*
X25994Y55510D1*
X26002Y55509D1*
X25489D1*
G37*
G36*
X26258Y55510D2*
X26768D1*
X26249Y55509D1*
X26258Y55510D1*
G37*
G36*
X25490Y55506D2*
X26002Y55509D1*
X26012Y55506D1*
X25490D1*
G37*
G36*
X26249Y55509D2*
X26768D1*
X26239Y55506D1*
X26249Y55509D1*
G37*
G36*
X25493Y55502D2*
X26012Y55506D1*
X26034Y55502D1*
X25493D1*
G37*
G36*
X26239Y55506D2*
X26766D1*
X26216Y55502D1*
X26239Y55506D1*
G37*
G36*
X25493Y55502D2*
X26034D1*
X26035D1*
X25493D1*
G37*
G36*
X26216D2*
X26763D1*
X26215D1*
X26216D1*
G37*
G36*
X25496Y55497D2*
X26035Y55502D1*
X26076Y55497D1*
X25496D1*
G37*
G36*
X26215Y55502D2*
X26763D1*
X26170Y55497D1*
X26215Y55502D1*
G37*
G36*
X25497Y55495D2*
X26076Y55497D1*
X26122Y55495D1*
X25497D1*
G37*
G36*
X26170Y55497D2*
X26760D1*
X26122Y55495D1*
X26170Y55497D1*
G37*
G36*
X27355Y53529D2*
X27376Y53530D1*
X27397Y53529D1*
X27355D1*
G37*
G36*
D2*
X27397D1*
X27335Y53525D1*
X27355Y53529D1*
G37*
G36*
X27335Y53525D2*
X27397Y53529D1*
X27416Y53525D1*
X27335D1*
G37*
G36*
D2*
X27416D1*
X27315Y53521D1*
X27335Y53525D1*
G37*
G36*
X27315Y53521D2*
X27416Y53525D1*
X27435Y53521D1*
X27315D1*
G37*
G36*
D2*
X27435D1*
X27296Y53514D1*
X27315Y53521D1*
G37*
G36*
X27296Y53514D2*
X27435Y53521D1*
X27453Y53514D1*
X27296D1*
G37*
G36*
D2*
X27453D1*
X27279Y53506D1*
X27296Y53514D1*
G37*
G36*
X27278Y53506D2*
X27453Y53514D1*
X27471Y53506D1*
X27278D1*
G37*
G36*
X27279D2*
X27471D1*
X27261Y53496D1*
X27279Y53506D1*
G37*
G36*
X27261Y53496D2*
X27471Y53506D1*
X27488Y53496D1*
X27261D1*
G37*
G36*
D2*
X27488D1*
X27245Y53484D1*
X27261Y53496D1*
G37*
G36*
X27245Y53484D2*
X27488Y53496D1*
X27504Y53484D1*
X27245D1*
G37*
G36*
D2*
X27504D1*
X27230Y53469D1*
X27245Y53484D1*
G37*
G36*
X27230Y53469D2*
X27504Y53484D1*
X27519Y53469D1*
X27230D1*
G37*
G36*
D2*
X27519D1*
X27216Y53454D1*
X27230Y53469D1*
G37*
G36*
X27216Y53454D2*
X27519Y53469D1*
X27533Y53454D1*
X27216D1*
G37*
G36*
D2*
X27533D1*
X27204Y53438D1*
X27216Y53454D1*
G37*
G36*
X27204Y53438D2*
X27533Y53454D1*
X27545Y53438D1*
X27204D1*
G37*
G36*
D2*
X27545D1*
X27203D1*
X27204D1*
G37*
G36*
X27203D2*
X27545D1*
D1*
X27203D1*
G37*
G36*
D2*
X27545D1*
X27193Y53421D1*
X27203Y53438D1*
G37*
G36*
X27193Y53421D2*
X27545Y53438D1*
X27556Y53421D1*
X27193D1*
G37*
G36*
D2*
X27556D1*
X27193D1*
G37*
G36*
D2*
X27556D1*
D1*
X27193D1*
G37*
G36*
D2*
X27556D1*
X27185Y53403D1*
X27193Y53421D1*
G37*
G36*
X27185Y53403D2*
X27556Y53421D1*
X27564Y53403D1*
X27185D1*
G37*
G36*
D2*
X27564D1*
X27185D1*
D1*
G37*
G36*
D2*
X27564D1*
D1*
X27185D1*
G37*
G36*
D2*
X27564D1*
X27179Y53385D1*
X27185Y53403D1*
G37*
G36*
X27179Y53385D2*
X27564Y53403D1*
X27571Y53385D1*
X27179D1*
G37*
G36*
D2*
X27571D1*
X27178D1*
X27179D1*
G37*
G36*
X27178D2*
X27571D1*
D1*
X27178D1*
G37*
G36*
D2*
X27571D1*
X27174Y53365D1*
X27178Y53385D1*
G37*
G36*
X27174Y53365D2*
X27571Y53385D1*
X27575Y53365D1*
X27174D1*
G37*
G36*
D2*
X27575D1*
X27174D1*
G37*
G36*
D2*
X27575D1*
D1*
X27174D1*
G37*
G36*
D2*
X27575D1*
X27171Y53346D1*
X27174Y53365D1*
G37*
G36*
X27171Y53346D2*
X27575Y53365D1*
X27578Y53346D1*
X27171D1*
G37*
G36*
D2*
X27578D1*
X27171Y53345D1*
Y53346D1*
G37*
G36*
Y53345D2*
X27578Y53346D1*
Y53345D1*
X27171D1*
G37*
G36*
D2*
X27578D1*
X27170Y53325D1*
X27171Y53345D1*
G37*
G36*
X27170Y53325D2*
X27578Y53345D1*
X27579Y53325D1*
X27170D1*
G37*
G36*
D2*
X27579D1*
X27170Y53324D1*
Y53325D1*
G37*
G36*
X26565Y48239D2*
X26848D1*
X26563Y48204D1*
X26565Y48239D1*
G37*
G36*
X26563Y48204D2*
X26847D1*
X26561Y48179D1*
X26563Y48204D1*
G37*
G36*
X26561Y48179D2*
X26846D1*
X26559Y48172D1*
X26561Y48179D1*
G37*
G36*
X26559Y48172D2*
X26845D1*
X26558Y48164D1*
X26559Y48172D1*
G37*
G36*
X26558Y48164D2*
X26844D1*
X26549Y48125D1*
X26558Y48164D1*
G37*
G36*
X26549Y48125D2*
X26839D1*
X26548Y48124D1*
X26549Y48125D1*
G37*
G36*
X26548Y48124D2*
X26839D1*
X26540Y48103D1*
X26548Y48124D1*
G37*
G36*
X26540Y48103D2*
X26836D1*
X26532Y48084D1*
X26540Y48103D1*
G37*
G36*
X26532Y48084D2*
X26832D1*
X26529Y48077D1*
X26532Y48084D1*
G37*
G36*
X26529Y48077D2*
X26830D1*
X26507Y48043D1*
X26529Y48077D1*
G37*
G36*
X26507Y48043D2*
X26822D1*
X26504Y48038D1*
X26507Y48043D1*
G37*
G36*
X26504Y48038D2*
X26821D1*
X26502Y48034D1*
X26504Y48038D1*
G37*
G36*
X26502Y48034D2*
X26820D1*
X26472Y48003D1*
X26502Y48034D1*
G37*
G36*
X26472Y48003D2*
X26809D1*
X26466Y47997D1*
X26472Y48003D1*
G37*
G36*
X26466Y47997D2*
X26808D1*
X26437Y47977D1*
X26466Y47997D1*
G37*
G36*
X26437Y47977D2*
X26800D1*
X26423Y47966D1*
X26437Y47977D1*
G37*
G36*
X26423Y47966D2*
X26796D1*
X26415Y47963D1*
X26423Y47966D1*
G37*
G36*
X26415Y47963D2*
X26794D1*
X26372Y47941D1*
X26415Y47963D1*
G37*
G36*
X26372Y47941D2*
X26784D1*
X26313Y47922D1*
X26372Y47941D1*
G37*
G36*
X26049Y48900D2*
X26129Y48903D1*
X26208Y48900D1*
X26049D1*
G37*
G36*
D2*
X26208D1*
X25977Y48892D1*
X26049Y48900D1*
G37*
G36*
X25977Y48892D2*
X26208Y48900D1*
X26283Y48892D1*
X25977D1*
G37*
G36*
D2*
X26283D1*
X25974D1*
X25977D1*
G37*
G36*
X25974D2*
X26283D1*
X26284D1*
X25974D1*
G37*
G36*
D2*
X26284D1*
X25906Y48878D1*
X25974Y48892D1*
G37*
G36*
X25906Y48878D2*
X26284Y48892D1*
X26354Y48878D1*
X25906D1*
G37*
G36*
D2*
X26354D1*
X25903Y48877D1*
X25906Y48878D1*
G37*
G36*
X25903Y48877D2*
X26354Y48878D1*
X26356Y48877D1*
X25903D1*
G37*
G36*
D2*
X26356D1*
X25840Y48858D1*
X25903Y48877D1*
G37*
G36*
X25840Y48858D2*
X26356Y48877D1*
X26421Y48858D1*
X25840D1*
G37*
G36*
D2*
X26421D1*
X25836Y48857D1*
X25840Y48858D1*
G37*
G36*
X25836Y48857D2*
X26421Y48858D1*
X26424Y48857D1*
X25836D1*
G37*
G36*
D2*
X26424D1*
X25778Y48833D1*
X25836Y48857D1*
G37*
G36*
X25778Y48833D2*
X26424Y48857D1*
X26484Y48833D1*
X25778D1*
G37*
G36*
D2*
X26484D1*
X25772Y48831D1*
X25778Y48833D1*
G37*
G36*
X25772Y48831D2*
X26484Y48833D1*
X26488Y48831D1*
X25772D1*
G37*
G36*
D2*
X26488D1*
X25719Y48802D1*
X25772Y48831D1*
G37*
G36*
X25719Y48802D2*
X26488Y48831D1*
X26544Y48802D1*
X25719D1*
G37*
G36*
D2*
X26544D1*
X25713Y48800D1*
X25719Y48802D1*
G37*
G36*
X25713Y48800D2*
X26544Y48802D1*
X26549Y48800D1*
X25713D1*
G37*
G36*
D2*
X26549D1*
X25664Y48766D1*
X25713Y48800D1*
G37*
G36*
X25664Y48766D2*
X26549Y48800D1*
X26599Y48766D1*
X25664D1*
G37*
G36*
D2*
X26599D1*
X25658Y48762D1*
X25664Y48766D1*
G37*
G36*
X25658Y48762D2*
X26599Y48766D1*
X26605Y48762D1*
X25658D1*
G37*
G36*
D2*
X26605D1*
X25613Y48724D1*
X25658Y48762D1*
G37*
G36*
X25613Y48724D2*
X26605Y48762D1*
X26651Y48724D1*
X25613D1*
G37*
G36*
D2*
X26651D1*
X25606Y48719D1*
X25613Y48724D1*
G37*
G36*
X25606Y48719D2*
X26651Y48724D1*
X26657Y48719D1*
X25606D1*
G37*
G36*
D2*
X26657D1*
X25567Y48678D1*
X25606Y48719D1*
G37*
G36*
X25567Y48678D2*
X26657Y48719D1*
X26697Y48678D1*
X25567D1*
G37*
G36*
D2*
X26697D1*
X25561Y48671D1*
X25567Y48678D1*
G37*
G36*
X25561Y48671D2*
X26697Y48678D1*
X26703Y48671D1*
X25561D1*
G37*
G36*
D2*
X26703D1*
X25526Y48627D1*
X25561Y48671D1*
G37*
G36*
X25526Y48627D2*
X26703Y48671D1*
X26738Y48627D1*
X25526D1*
G37*
G36*
D2*
X26738D1*
X25521Y48619D1*
X25526Y48627D1*
G37*
G36*
X25521Y48619D2*
X26738Y48627D1*
X26743Y48619D1*
X25521D1*
G37*
G36*
D2*
X26743D1*
X25494Y48575D1*
X25521Y48619D1*
G37*
G36*
X25494Y48575D2*
X26742Y48619D1*
X26770Y48575D1*
X25494D1*
G37*
G36*
D2*
X26056D1*
X25493Y48573D1*
X25494Y48575D1*
G37*
G36*
X26056Y48573D2*
X26770Y48575D1*
X26772Y48573D1*
X26056D1*
G37*
G36*
X25493D2*
X26037D1*
X25491Y48570D1*
X25493Y48573D1*
G37*
G36*
X26056Y48570D2*
X26772Y48573D1*
X26773Y48570D1*
X26056D1*
G37*
G36*
X25491D2*
X26015D1*
X25487Y48564D1*
X25491Y48570D1*
G37*
G36*
X26056Y48564D2*
X26772Y48570D1*
X26776Y48564D1*
X26056D1*
G37*
G36*
X25487D2*
X25978D1*
X25487D1*
G37*
G36*
X26056D2*
X26776D1*
D1*
X26056D1*
G37*
G36*
X25487D2*
X25977D1*
X25483Y48553D1*
X25487Y48564D1*
G37*
G36*
X26056Y48553D2*
X26776Y48564D1*
X26781Y48553D1*
X26056D1*
G37*
G36*
X25483D2*
X25942D1*
X25482D1*
X25483D1*
G37*
G36*
X26315D2*
X26781D1*
D1*
X26315D1*
G37*
G36*
X25482D2*
X25940D1*
X25481Y48550D1*
X25482Y48553D1*
G37*
G36*
X26328Y48550D2*
X26781Y48553D1*
X26782Y48550D1*
X26328D1*
G37*
G36*
X25481D2*
X25930D1*
X25479Y48545D1*
X25481Y48550D1*
G37*
G36*
X26342Y48545D2*
X26782Y48550D1*
X26785Y48545D1*
X26342D1*
G37*
G36*
X25479D2*
X25917D1*
X25477Y48542D1*
X25479Y48545D1*
G37*
G36*
X26353Y48542D2*
X26785Y48545D1*
X26786Y48542D1*
X26353D1*
G37*
G36*
X25477D2*
X25906D1*
X25476Y48541D1*
X25477Y48542D1*
G37*
G36*
X26356Y48541D2*
X26786Y48542D1*
X26787Y48541D1*
X26356D1*
G37*
G36*
X25476D2*
X25903D1*
X25474Y48535D1*
X25476Y48541D1*
G37*
G36*
X26369Y48535D2*
X26787Y48541D1*
X26790Y48535D1*
X26369D1*
G37*
G36*
X25474D2*
X25892D1*
X25473Y48534D1*
X25474Y48535D1*
G37*
G36*
X26372Y48534D2*
X26790Y48535D1*
Y48534D1*
X26372D1*
G37*
G36*
X25473D2*
X25889D1*
X25471Y48529D1*
X25473Y48534D1*
G37*
G36*
X26382Y48529D2*
X26790Y48534D1*
X26792Y48529D1*
X26382D1*
G37*
G36*
X25471D2*
X25879D1*
X25470Y48527D1*
X25471Y48529D1*
G37*
G36*
X26387Y48527D2*
X26792Y48529D1*
X26794Y48527D1*
X26387D1*
G37*
G36*
X25470D2*
X25873D1*
X25468Y48522D1*
X25470Y48527D1*
G37*
G36*
X26394Y48522D2*
X26794Y48527D1*
X26795Y48522D1*
X26394D1*
G37*
G36*
X25468D2*
X25868D1*
X25465Y48516D1*
X25468Y48522D1*
G37*
G36*
X26406Y48516D2*
X26795Y48522D1*
X26798Y48516D1*
X26406D1*
G37*
G36*
X25465D2*
X25856D1*
X25465Y48515D1*
Y48516D1*
G37*
G36*
X26408Y48515D2*
X26798Y48516D1*
X26799Y48515D1*
X26408D1*
G37*
G36*
X25465D2*
X25854D1*
X25464Y48514D1*
X25465Y48515D1*
G37*
G36*
X26409Y48514D2*
X26799Y48515D1*
Y48514D1*
X26409D1*
G37*
G36*
X25464D2*
X25853D1*
X25462Y48509D1*
X25464Y48514D1*
G37*
G36*
X26418Y48509D2*
X26799Y48514D1*
X26801Y48509D1*
X26418D1*
G37*
G36*
X25462D2*
X25844D1*
X25462Y48508D1*
Y48509D1*
G37*
G36*
X26418Y48508D2*
X26801Y48509D1*
Y48508D1*
X26418D1*
G37*
G36*
X25462D2*
X25843D1*
X25460Y48504D1*
X25462Y48508D1*
G37*
G36*
X26425Y48504D2*
X26801Y48508D1*
X26803Y48504D1*
X26425D1*
G37*
G36*
X25460D2*
X25837D1*
X25459Y48501D1*
X25460Y48504D1*
G37*
G36*
X26429Y48501D2*
X26803Y48504D1*
X26804Y48501D1*
X26429D1*
G37*
G36*
X25459D2*
X25833D1*
X25456Y48493D1*
X25459Y48501D1*
G37*
G36*
X26440Y48493D2*
X26804Y48501D1*
X26806Y48493D1*
X26440D1*
G37*
G36*
X25456D2*
X25822D1*
X25455Y48492D1*
X25456Y48493D1*
G37*
G36*
X26442Y48492D2*
X26806Y48493D1*
X26807Y48492D1*
X26442D1*
G37*
G36*
X25455D2*
X25820D1*
X25454Y48489D1*
X25455Y48492D1*
G37*
G36*
X26447Y48489D2*
X26807Y48492D1*
X26808Y48489D1*
X26447D1*
G37*
G36*
X25454D2*
X25815D1*
X25453Y48485D1*
X25454Y48489D1*
G37*
G36*
X26451Y48485D2*
X26808Y48489D1*
X26809Y48485D1*
X26451D1*
G37*
G36*
X25453D2*
X25811D1*
X25450Y48476D1*
X25453Y48485D1*
G37*
G36*
X26461Y48476D2*
X26809Y48485D1*
X26812Y48476D1*
X26461D1*
G37*
G36*
X25450D2*
X25801D1*
X25450D1*
G37*
G36*
X26461D2*
X26812D1*
D1*
X26461D1*
G37*
G36*
X25450D2*
X25801D1*
X25447Y48468D1*
X25450Y48476D1*
G37*
G36*
X26471Y48468D2*
X26812Y48476D1*
X26816Y48468D1*
X26471D1*
G37*
G36*
X25447D2*
X25792D1*
X25446Y48466D1*
X25447Y48468D1*
G37*
G36*
X26472Y48466D2*
X26816Y48468D1*
Y48466D1*
X26472D1*
G37*
G36*
X25446D2*
X25789D1*
X25444Y48459D1*
X25446Y48466D1*
G37*
G36*
X26480Y48459D2*
X26816Y48466D1*
X26819Y48459D1*
X26480D1*
G37*
G36*
X25444D2*
X25783D1*
X25442Y48453D1*
X25444Y48459D1*
G37*
G36*
X26484Y48453D2*
X26819Y48459D1*
X26821Y48453D1*
X26484D1*
G37*
G36*
X25442D2*
X25778D1*
X25442Y48451D1*
Y48453D1*
G37*
G36*
X26486Y48451D2*
X26821Y48453D1*
Y48451D1*
X26486D1*
G37*
G36*
X25442D2*
X25776D1*
X25441Y48448D1*
X25442Y48451D1*
G37*
G36*
X26489Y48448D2*
X26821Y48451D1*
X26822Y48448D1*
X26489D1*
G37*
G36*
X25441D2*
X25774D1*
X25438Y48442D1*
X25441Y48448D1*
G37*
G36*
X26495Y48442D2*
X26822Y48448D1*
X26824Y48442D1*
X26495D1*
G37*
G36*
X25438D2*
X25767D1*
X25438Y48440D1*
Y48442D1*
G37*
G36*
X26495Y48440D2*
X26824Y48442D1*
Y48440D1*
X26495D1*
G37*
G36*
X25438D2*
X25766D1*
X25437Y48438D1*
X25438Y48440D1*
G37*
G36*
X26497Y48438D2*
X26824Y48440D1*
Y48438D1*
X26497D1*
G37*
G36*
X25437D2*
X25765D1*
X25437D1*
G37*
G36*
X26497D2*
X26824D1*
D1*
X26497D1*
G37*
G36*
X25437D2*
X25764D1*
X25435Y48428D1*
X25437Y48438D1*
G37*
G36*
X26505Y48428D2*
X26824Y48438D1*
X26827Y48428D1*
X26505D1*
G37*
G36*
X25435D2*
X25757D1*
X25433Y48417D1*
X25435Y48428D1*
G37*
G36*
X26512Y48417D2*
X26827Y48428D1*
X26829Y48417D1*
X26512D1*
G37*
G36*
X25433D2*
X25749D1*
X25432Y48414D1*
X25433Y48417D1*
G37*
G36*
X26514Y48414D2*
X26829Y48417D1*
X26830Y48414D1*
X26514D1*
G37*
G36*
X25432D2*
X25747D1*
X25431Y48409D1*
X25432Y48414D1*
G37*
G36*
X26517Y48409D2*
X26830Y48414D1*
X26831Y48409D1*
X26517D1*
G37*
G36*
X25431D2*
X25744D1*
X25430Y48406D1*
X25431Y48409D1*
G37*
G36*
X26519Y48406D2*
X26831Y48409D1*
X26832Y48406D1*
X26519D1*
G37*
G36*
X25430D2*
X25742D1*
X25429Y48399D1*
X25430Y48406D1*
G37*
G36*
X26523Y48399D2*
X26832Y48406D1*
X26834Y48399D1*
X26523D1*
G37*
G36*
X25429D2*
X25738D1*
X25428Y48394D1*
X25429Y48399D1*
G37*
G36*
X26526Y48394D2*
X26834Y48399D1*
Y48394D1*
X26526D1*
G37*
G36*
X25428D2*
X25735D1*
X25426Y48387D1*
X25428Y48394D1*
G37*
G36*
X26530Y48387D2*
X26834Y48394D1*
X26836Y48387D1*
X26530D1*
G37*
G36*
X25426D2*
X25731D1*
X25425Y48385D1*
X25426Y48387D1*
G37*
G36*
X26531Y48385D2*
X26836Y48387D1*
X26837Y48385D1*
X26531D1*
G37*
G36*
X25425D2*
X25730D1*
X25425Y48383D1*
Y48385D1*
G37*
G36*
X26532Y48383D2*
X26837Y48385D1*
Y48383D1*
X26532D1*
G37*
G36*
X25425D2*
X25729D1*
X25423Y48374D1*
X25425Y48383D1*
G37*
G36*
X26536Y48374D2*
X26837Y48383D1*
X26838Y48374D1*
X26536D1*
G37*
G36*
X25423D2*
X25725D1*
X25422Y48371D1*
X25423Y48374D1*
G37*
G36*
X26537Y48371D2*
X26838Y48374D1*
X26839Y48371D1*
X26537D1*
G37*
G36*
X25422D2*
X25723D1*
X25422Y48369D1*
Y48371D1*
G37*
G36*
X26539Y48369D2*
X26839Y48371D1*
Y48369D1*
X26539D1*
G37*
G36*
X25422D2*
X25722D1*
X25421Y48361D1*
X25422Y48369D1*
G37*
G36*
X26542Y48361D2*
X26839Y48369D1*
X26840Y48361D1*
X26542D1*
G37*
G36*
X25421D2*
X25718D1*
X25421Y48359D1*
Y48361D1*
G37*
G36*
X26543Y48359D2*
X26840Y48361D1*
Y48359D1*
X26543D1*
G37*
G36*
X25421D2*
X25717D1*
X25420Y48355D1*
X25421Y48359D1*
G37*
G36*
X26544Y48355D2*
X26840Y48359D1*
Y48355D1*
X26544D1*
G37*
G36*
X25420D2*
X25716D1*
X25419Y48347D1*
X25420Y48355D1*
G37*
G36*
X26547Y48347D2*
X26840Y48355D1*
X26842Y48347D1*
X26547D1*
G37*
G36*
X25419D2*
X25713D1*
X25418Y48335D1*
X25419Y48347D1*
G37*
G36*
X26551Y48335D2*
X26842Y48347D1*
X26843Y48335D1*
X26551D1*
G37*
G36*
X25418D2*
X25709D1*
X25417Y48328D1*
X25418Y48335D1*
G37*
G36*
X26553Y48328D2*
X26843Y48335D1*
X26844Y48328D1*
X26553D1*
G37*
G36*
X25417D2*
X25706D1*
X25416Y48324D1*
X25417Y48328D1*
G37*
G36*
X26554Y48324D2*
X26844Y48328D1*
Y48324D1*
X26554D1*
G37*
G36*
X25416D2*
X25705D1*
X25416Y48323D1*
Y48324D1*
G37*
G36*
X26555Y48323D2*
X26844Y48324D1*
X26845Y48323D1*
X26555D1*
G37*
G36*
X25416D2*
X25705D1*
X25416Y48322D1*
Y48323D1*
G37*
G36*
X26555Y48322D2*
X26845Y48323D1*
Y48322D1*
X26555D1*
G37*
G36*
X25416D2*
X25705D1*
X25416Y48318D1*
Y48322D1*
G37*
G36*
X26555Y48318D2*
X26845Y48322D1*
Y48318D1*
X26555D1*
G37*
G36*
X25416D2*
X25704D1*
X25415Y48310D1*
X25416Y48318D1*
G37*
G36*
X26558Y48310D2*
X26845Y48318D1*
X26846Y48310D1*
X26558D1*
G37*
G36*
X25415D2*
X25702D1*
X25414Y48303D1*
X25415Y48310D1*
G37*
G36*
X26559Y48303D2*
X26846Y48310D1*
Y48303D1*
X26559D1*
G37*
G36*
X25414D2*
X25701D1*
X25414Y48298D1*
Y48303D1*
G37*
G36*
X26560Y48298D2*
X26846Y48303D1*
Y48298D1*
X26560D1*
G37*
G36*
X25414D2*
X25699D1*
X25413Y48291D1*
X25414Y48298D1*
G37*
G36*
X26561Y48291D2*
X26846Y48298D1*
X26847Y48291D1*
X26561D1*
G37*
G36*
X25413D2*
X25698D1*
X25413Y48286D1*
Y48291D1*
G37*
G36*
X26561Y48286D2*
X26846Y48291D1*
X26847Y48286D1*
X26561D1*
G37*
G36*
X25413D2*
X25697D1*
X25413Y48285D1*
Y48286D1*
G37*
G36*
X26562Y48285D2*
X26847Y48286D1*
Y48285D1*
X26562D1*
G37*
G36*
X25413D2*
X25697D1*
X25413Y48284D1*
Y48285D1*
G37*
G36*
X26562Y48284D2*
X26847Y48285D1*
Y48284D1*
X26562D1*
G37*
G36*
X25413D2*
X25697D1*
X25412Y48271D1*
X25413Y48284D1*
G37*
G36*
X26563Y48271D2*
X26847Y48284D1*
Y48271D1*
X26563D1*
G37*
G36*
X25412D2*
X25695D1*
X25412Y48259D1*
Y48271D1*
G37*
G36*
X26564Y48259D2*
X26847Y48271D1*
X26848Y48259D1*
X26564D1*
G37*
G36*
X25412D2*
X25694D1*
X25412Y48255D1*
Y48259D1*
G37*
G36*
X26564Y48255D2*
X26848Y48259D1*
Y48255D1*
X26564D1*
G37*
G36*
X25412D2*
X25693D1*
X25411Y48246D1*
X25412Y48255D1*
G37*
G36*
X26564Y48246D2*
X26848Y48255D1*
Y48246D1*
X26564D1*
G37*
G36*
X25411D2*
X25693D1*
X25411D1*
G37*
G36*
D2*
X25693D1*
X25411D1*
G37*
G36*
D2*
X25693D1*
X25411D1*
G37*
G36*
D2*
X25693D1*
X25411D1*
G37*
G36*
D2*
X25693D1*
X25411D1*
G37*
G36*
D2*
X25693D1*
X25411Y48245D1*
Y48246D1*
G37*
G36*
Y48245D2*
X25693D1*
X25411D1*
G37*
G36*
D2*
X25693D1*
X25411D1*
G37*
G36*
D2*
X25693D1*
X25411Y48230D1*
Y48245D1*
G37*
G36*
Y48203D2*
X25691Y48218D1*
X25692Y48203D1*
X25411D1*
G37*
G36*
Y48190D2*
X25692Y48203D1*
Y48190D1*
X25411D1*
G37*
G36*
X25412Y48177D2*
X25692Y48190D1*
X25694Y48177D1*
X25412D1*
G37*
G36*
X25413Y48162D2*
X25694Y48177D1*
X25695Y48162D1*
X25413D1*
G37*
G36*
X25414Y48152D2*
X25695Y48162D1*
X25697Y48152D1*
X25414D1*
G37*
G36*
X25415Y48137D2*
X25697Y48152D1*
X25699Y48137D1*
X25415D1*
G37*
G36*
X25416Y48127D2*
X25699Y48137D1*
X25702Y48127D1*
X25416D1*
G37*
G36*
X25418Y48111D2*
X25702Y48127D1*
X25706Y48111D1*
X25418D1*
G37*
G36*
X25419Y48103D2*
X25706Y48111D1*
X25708Y48103D1*
X25419D1*
G37*
G36*
X25422Y48087D2*
X25708Y48103D1*
X25713Y48087D1*
X25422D1*
G37*
G36*
X25424Y48079D2*
X25713Y48087D1*
X25717Y48079D1*
X25424D1*
G37*
G36*
X25426Y48065D2*
X25717Y48079D1*
X25723Y48065D1*
X25426D1*
G37*
G36*
X25428Y48055D2*
X25723Y48065D1*
X25728Y48055D1*
X25428D1*
G37*
G36*
X25430Y48044D2*
X25728Y48055D1*
X25734Y48044D1*
X25430D1*
G37*
G36*
X25433Y48033D2*
X25734Y48044D1*
X25742Y48033D1*
X25433D1*
G37*
G36*
X25435Y48024D2*
X25742Y48033D1*
X25747Y48024D1*
X25435D1*
G37*
G36*
X25439Y48010D2*
X25747Y48024D1*
X25759Y48010D1*
X25439D1*
G37*
G36*
X25441Y48005D2*
X25759Y48010D1*
X25763Y48005D1*
X25441D1*
G37*
G36*
X25446Y47988D2*
X25763Y48005D1*
X25779Y47988D1*
X25446D1*
G37*
G36*
X25447Y47985D2*
X25779Y47988D1*
X25781Y47985D1*
X25447D1*
G37*
G36*
X25453Y47966D2*
X25781Y47985D1*
X25801Y47966D1*
X25453D1*
G37*
G36*
X25454Y47965D2*
X25801Y47966D1*
X25803Y47965D1*
X25454D1*
G37*
G36*
X25462Y47944D2*
X25803Y47965D1*
X25826Y47944D1*
X25462D1*
G37*
G36*
X25463Y47943D2*
X25826Y47944D1*
X25827Y47943D1*
X25463D1*
G37*
G36*
X25471Y47924D2*
X25827Y47943D1*
X25851Y47924D1*
X25471D1*
G37*
G36*
X25472Y47921D2*
X25851Y47924D1*
X25854Y47921D1*
X25472D1*
G37*
G36*
X25481Y47903D2*
X25854Y47921D1*
X25879Y47903D1*
X25481D1*
G37*
G36*
X25483Y47899D2*
X25879Y47903D1*
X25885Y47899D1*
X25483D1*
G37*
G36*
X25492Y47883D2*
X25885Y47899D1*
X25908Y47883D1*
X25492D1*
G37*
G36*
X25496Y47876D2*
X25908Y47883D1*
X25918Y47876D1*
X25496D1*
G37*
G36*
X25504Y47864D2*
X25918Y47876D1*
X25937Y47864D1*
X25504D1*
G37*
G36*
X25511Y47852D2*
X25937Y47864D1*
X25954Y47852D1*
X25511D1*
G37*
G36*
X25450Y50407D2*
X25977Y50410D1*
X25985Y50407D1*
X25450D1*
G37*
G36*
X26278Y50410D2*
X27810D1*
X26270Y50407D1*
X26278Y50410D1*
G37*
G36*
X25450Y50405D2*
X25985Y50407D1*
X25994Y50405D1*
X25450D1*
G37*
G36*
X26270Y50407D2*
X27810D1*
X26261Y50405D1*
X26270Y50407D1*
G37*
G36*
X25450Y50403D2*
X25994Y50405D1*
X26002Y50403D1*
X25450D1*
G37*
G36*
X26261Y50405D2*
X27810D1*
X26253Y50403D1*
X26261Y50405D1*
G37*
G36*
X25450Y50402D2*
X26002Y50403D1*
X26011Y50402D1*
X25450D1*
G37*
G36*
X26253Y50403D2*
X27810D1*
X26244Y50402D1*
X26253Y50403D1*
G37*
G36*
X25450Y50399D2*
X26011Y50402D1*
X26020Y50399D1*
X25450D1*
G37*
G36*
X26244Y50402D2*
X27810D1*
X26235Y50399D1*
X26244Y50402D1*
G37*
G36*
X25450Y50398D2*
X26020Y50399D1*
X26029Y50398D1*
X25450D1*
G37*
G36*
X26235Y50399D2*
X27810D1*
X26226Y50398D1*
X26235Y50399D1*
G37*
G36*
X25450Y50397D2*
X26029Y50398D1*
X26038Y50397D1*
X25450D1*
G37*
G36*
X26226Y50398D2*
X27810D1*
X26217Y50397D1*
X26226Y50398D1*
G37*
G36*
X25450Y50396D2*
X26038Y50397D1*
X26047Y50396D1*
X25450D1*
G37*
G36*
X26217Y50397D2*
X27810D1*
X26208Y50396D1*
X26217Y50397D1*
G37*
G36*
X25450Y50395D2*
X26047Y50396D1*
Y50395D1*
X25450D1*
G37*
G36*
X26208Y50396D2*
X27810D1*
X26208Y50395D1*
Y50396D1*
G37*
G36*
X25450Y50395D2*
X26048D1*
X26049D1*
X25450D1*
G37*
G36*
X26206D2*
X27810D1*
X26206D1*
D1*
G37*
G36*
X25450D2*
X26049D1*
X26050D1*
X25450D1*
G37*
G36*
X26205D2*
X27810D1*
X26205D1*
D1*
G37*
G36*
X25450D2*
X26051D1*
X26055D1*
X25450D1*
G37*
G36*
X26204D2*
X27810D1*
X26200D1*
X26204D1*
G37*
G36*
X25450Y50394D2*
X26055Y50395D1*
X26059Y50394D1*
X25450D1*
G37*
G36*
X26200Y50395D2*
X27810D1*
X26196Y50394D1*
X26200Y50395D1*
G37*
G36*
X25450Y50394D2*
X26059D1*
X26064D1*
X25450D1*
G37*
G36*
X26196D2*
X27810D1*
X26191D1*
X26196D1*
G37*
G36*
X25450Y50392D2*
X26064Y50394D1*
X26068Y50392D1*
X25450D1*
G37*
G36*
X26191Y50394D2*
X27810D1*
X26187Y50392D1*
X26191Y50394D1*
G37*
G36*
X25450Y50392D2*
X26068D1*
X26072D1*
X25450D1*
G37*
G36*
X26187D2*
X27810D1*
X26182D1*
X26187D1*
G37*
G36*
X25450D2*
X26072D1*
X26076D1*
X25450D1*
G37*
G36*
X26182D2*
X27810D1*
X26178D1*
X26182D1*
G37*
G36*
X25450Y50391D2*
X26076Y50392D1*
X26081Y50391D1*
X25450D1*
G37*
G36*
X26178Y50392D2*
X27810D1*
X26174Y50391D1*
X26178Y50392D1*
G37*
G36*
X25450Y50391D2*
X26081D1*
X26085D1*
X25450D1*
G37*
G36*
X26174D2*
X27810D1*
X26169D1*
X26174D1*
G37*
G36*
X25450D2*
X26088D1*
X26089D1*
X25450D1*
G37*
G36*
X26167D2*
X27810D1*
X26166D1*
X26167D1*
G37*
G36*
X25450D2*
X26091D1*
X26095D1*
X25450D1*
G37*
G36*
X26164D2*
X27810D1*
X26160D1*
X26164D1*
G37*
G36*
X25450D2*
X26095D1*
X26100D1*
X25450D1*
G37*
G36*
X26160D2*
X27810D1*
X26155D1*
X26160D1*
G37*
G36*
X25450Y50390D2*
X26100Y50391D1*
X26105Y50390D1*
X25450D1*
G37*
G36*
X26155Y50391D2*
X27810D1*
X26150Y50390D1*
X26155Y50391D1*
G37*
G36*
X25450Y50390D2*
X26104D1*
X26109D1*
X25450D1*
G37*
G36*
X26150D2*
X27810D1*
X26146D1*
X26150D1*
G37*
G36*
X25450D2*
X26109D1*
X26113D1*
X25450D1*
G37*
G36*
X26146D2*
X27810D1*
X26141D1*
X26146D1*
G37*
G36*
X25450D2*
X26118D1*
X26123D1*
X25450D1*
G37*
G36*
X26137D2*
X27810D1*
X26132D1*
X26137D1*
G37*
G36*
X26058Y51474D2*
X26134Y51477D1*
X26209Y51474D1*
X26058D1*
G37*
G36*
D2*
X26209D1*
X25985Y51465D1*
X26058Y51474D1*
G37*
G36*
X25985Y51465D2*
X26209Y51474D1*
X26280Y51465D1*
X25985D1*
G37*
G36*
D2*
X26280D1*
X25915Y51451D1*
X25985Y51465D1*
G37*
G36*
X25915Y51451D2*
X26280Y51465D1*
X26349Y51451D1*
X25915D1*
G37*
G36*
X25916D2*
X26349D1*
X25849Y51432D1*
X25916Y51451D1*
G37*
G36*
X25849Y51432D2*
X26349Y51451D1*
X26414Y51432D1*
X25849D1*
G37*
G36*
D2*
X26414D1*
X25786Y51405D1*
X25849Y51432D1*
G37*
G36*
X25786Y51405D2*
X26414Y51432D1*
X26476Y51405D1*
X25786D1*
G37*
G36*
X25785D2*
X26476D1*
X25725Y51374D1*
X25785Y51405D1*
G37*
G36*
X25725Y51374D2*
X26476Y51405D1*
X26535Y51374D1*
X25725D1*
G37*
G36*
D2*
X26535D1*
X25668Y51337D1*
X25725Y51374D1*
G37*
G36*
X25668Y51337D2*
X26535Y51374D1*
X26590Y51337D1*
X25668D1*
G37*
G36*
D2*
X26590D1*
X25615Y51294D1*
X25668Y51337D1*
G37*
G36*
X25615Y51294D2*
X26590Y51337D1*
X26643Y51294D1*
X25615D1*
G37*
G36*
D2*
X26643D1*
X25567Y51248D1*
X25615Y51294D1*
G37*
G36*
X25567Y51248D2*
X26643Y51294D1*
X26691Y51248D1*
X25567D1*
G37*
G36*
D2*
X26691D1*
X25567Y51247D1*
Y51248D1*
G37*
G36*
Y51247D2*
X26691Y51248D1*
X26692Y51247D1*
X25567D1*
G37*
G36*
D2*
X26692D1*
X25527Y51197D1*
X25567Y51247D1*
G37*
G36*
X25527Y51197D2*
X26692Y51247D1*
X26733Y51197D1*
X25527D1*
G37*
G36*
D2*
X26733D1*
X25525Y51196D1*
X25527Y51197D1*
G37*
G36*
X25526Y51196D2*
X26733Y51197D1*
X26734Y51196D1*
X25526D1*
G37*
G36*
D2*
X26734D1*
X25499Y51156D1*
X25526Y51196D1*
G37*
G36*
X25499Y51156D2*
X26734Y51196D1*
X26761Y51156D1*
X25499D1*
G37*
G36*
D2*
X26134D1*
X25498Y51154D1*
X25499Y51156D1*
G37*
G36*
X26175Y51154D2*
X26761Y51156D1*
X26762Y51154D1*
X26175D1*
G37*
G36*
X25498D2*
X26087D1*
X25498D1*
G37*
G36*
X26179D2*
X26762D1*
D1*
X26179D1*
G37*
G36*
X25498D2*
X26085D1*
X25495Y51150D1*
X25498Y51154D1*
G37*
G36*
X26221Y51150D2*
X26762Y51154D1*
X26765Y51150D1*
X26221D1*
G37*
G36*
X25495D2*
X26041D1*
X25495Y51149D1*
Y51150D1*
G37*
G36*
X26222Y51149D2*
X26765Y51150D1*
Y51149D1*
X26222D1*
G37*
G36*
X25495D2*
X26040D1*
X25492Y51145D1*
X25495Y51149D1*
G37*
G36*
X26243Y51145D2*
X26765Y51149D1*
X26768Y51145D1*
X26243D1*
G37*
G36*
X25492D2*
X26017D1*
X25490Y51143D1*
X25492Y51145D1*
G37*
G36*
X26254Y51143D2*
X26768Y51145D1*
X26769Y51143D1*
X26254D1*
G37*
G36*
X25490D2*
X26005D1*
X25490Y51141D1*
Y51143D1*
G37*
G36*
X26261Y51141D2*
X26769Y51143D1*
X26770Y51141D1*
X26261D1*
G37*
G36*
X25490D2*
X25998D1*
X25489D1*
X25490D1*
G37*
G36*
X26263D2*
X26770D1*
D1*
X26263D1*
G37*
G36*
X25489D2*
X25996D1*
X25484Y51129D1*
X25489Y51141D1*
G37*
G36*
X26301Y51129D2*
X26770Y51141D1*
X26776Y51129D1*
X26301D1*
G37*
G36*
X25484D2*
X25957D1*
X25483D1*
X25484D1*
G37*
G36*
X26303D2*
X26776D1*
D1*
X26303D1*
G37*
G36*
X25483D2*
X25955D1*
X25476Y51115D1*
X25483Y51129D1*
G37*
G36*
X26338Y51115D2*
X26776Y51129D1*
X26784Y51115D1*
X26338D1*
G37*
G36*
X25476D2*
X25918D1*
X25476Y51114D1*
Y51115D1*
G37*
G36*
X26340Y51114D2*
X26784Y51115D1*
Y51114D1*
X26340D1*
G37*
G36*
X25476D2*
X25916D1*
X25467Y51097D1*
X25476Y51114D1*
G37*
G36*
X26373Y51097D2*
X26784Y51114D1*
X26793Y51097D1*
X26373D1*
G37*
G36*
X25467D2*
X25882D1*
X25466Y51096D1*
X25467Y51097D1*
G37*
G36*
X26376Y51096D2*
X26793Y51097D1*
X26794Y51096D1*
X26376D1*
G37*
G36*
X25466D2*
X25880D1*
X25463Y51089D1*
X25466Y51096D1*
G37*
G36*
X26386Y51089D2*
X26794Y51096D1*
X26797Y51089D1*
X26386D1*
G37*
G36*
X25463D2*
X25870D1*
X25462Y51087D1*
X25463Y51089D1*
G37*
G36*
X26390Y51087D2*
X26797Y51089D1*
X26798Y51087D1*
X26390D1*
G37*
G36*
X25462D2*
X25865D1*
X25458Y51075D1*
X25462Y51087D1*
G37*
G36*
X26407Y51075D2*
X26798Y51087D1*
X26802Y51075D1*
X26407D1*
G37*
G36*
X25458D2*
X25848D1*
X25457Y51074D1*
X25458Y51075D1*
G37*
G36*
X26410Y51074D2*
X26802Y51075D1*
X26803Y51074D1*
X26410D1*
G37*
G36*
X25457D2*
X25845D1*
X25449Y51051D1*
X25457Y51074D1*
G37*
G36*
X26438Y51051D2*
X26803Y51074D1*
X26812Y51051D1*
X26438D1*
G37*
G36*
X25449D2*
X25816D1*
X25447Y51049D1*
X25449Y51051D1*
G37*
G36*
X26442Y51049D2*
X26812Y51051D1*
X26813Y51049D1*
X26442D1*
G37*
G36*
X25447D2*
X25813D1*
X25441Y51030D1*
X25447Y51049D1*
G37*
G36*
X26460Y51030D2*
X26813Y51049D1*
X26819Y51030D1*
X26460D1*
G37*
G36*
X25441D2*
X25794D1*
X25439Y51027D1*
X25441Y51030D1*
G37*
G36*
X26464Y51027D2*
X26819Y51030D1*
X26821Y51027D1*
X26464D1*
G37*
G36*
X25439D2*
X25790D1*
X25438Y51023D1*
X25439Y51027D1*
G37*
G36*
X26467Y51023D2*
X26821Y51027D1*
Y51023D1*
X26467D1*
G37*
G36*
X25438D2*
X25787D1*
X25438Y51020D1*
Y51023D1*
G37*
G36*
X26471Y51020D2*
X26821Y51023D1*
X26822Y51020D1*
X26471D1*
G37*
G36*
X25437D2*
X25784D1*
X25431Y50993D1*
X25437Y51020D1*
G37*
G36*
X26493Y50993D2*
X26822Y51020D1*
X26829Y50993D1*
X26493D1*
G37*
G36*
X25431D2*
X25761D1*
X25430Y50991D1*
X25431Y50993D1*
G37*
G36*
X26496Y50991D2*
X26829Y50993D1*
X26830Y50991D1*
X26496D1*
G37*
G36*
X25430Y50990D2*
X25759D1*
X25425Y50969D1*
X25430Y50990D1*
G37*
G36*
X26510Y50969D2*
X26830Y50990D1*
X26836Y50969D1*
X26510D1*
G37*
G36*
X25425D2*
X25744D1*
X25424Y50965D1*
X25425Y50969D1*
G37*
G36*
X26513Y50965D2*
X26836Y50969D1*
Y50965D1*
X26513D1*
G37*
G36*
X25424D2*
X25741D1*
X25423Y50962D1*
X25424Y50965D1*
G37*
G36*
X26514Y50962D2*
X26836Y50965D1*
X26837Y50962D1*
X26514D1*
G37*
G36*
X25423D2*
X25740D1*
X25423Y50959D1*
Y50962D1*
G37*
G36*
X26516Y50959D2*
X26837Y50962D1*
Y50959D1*
X26516D1*
G37*
G36*
X25423D2*
X25738D1*
X25418Y50930D1*
X25423Y50959D1*
G37*
G36*
X26532Y50930D2*
X26837Y50959D1*
X26842Y50930D1*
X26532D1*
G37*
G36*
X25418D2*
X25722D1*
X25418Y50927D1*
Y50930D1*
G37*
G36*
X26534Y50927D2*
X26842Y50930D1*
Y50927D1*
X26534D1*
G37*
G36*
X25418D2*
X25721D1*
X25415Y50905D1*
X25418Y50927D1*
G37*
G36*
X26542Y50905D2*
X26842Y50927D1*
X26845Y50905D1*
X26542D1*
G37*
G36*
X25415D2*
X25713D1*
X25414Y50899D1*
X25415Y50905D1*
G37*
G36*
X26545Y50899D2*
X26845Y50905D1*
X26846Y50899D1*
X26545D1*
G37*
G36*
X25414D2*
X25711D1*
X25414Y50894D1*
Y50899D1*
G37*
G36*
X26546Y50894D2*
X26845Y50899D1*
X26846Y50894D1*
X26546D1*
G37*
G36*
X25414D2*
X25709D1*
X25413Y50891D1*
X25414Y50894D1*
G37*
G36*
X26548Y50891D2*
X26846Y50894D1*
Y50891D1*
X26548D1*
G37*
G36*
X25413D2*
X25708D1*
X25412Y50859D1*
X25413Y50891D1*
G37*
G36*
X26556Y50859D2*
X26846Y50891D1*
X26847Y50859D1*
X26556D1*
G37*
G36*
X25412D2*
X25699D1*
X25412Y50855D1*
Y50859D1*
G37*
G36*
X26557Y50855D2*
X26847Y50859D1*
Y50855D1*
X26557D1*
G37*
G36*
X25412D2*
X25699D1*
X25411Y50837D1*
X25412Y50855D1*
G37*
G36*
X26560Y50837D2*
X26847Y50855D1*
X26848Y50837D1*
X26560D1*
G37*
G36*
X25411D2*
X25696D1*
X25411Y50830D1*
Y50837D1*
G37*
G36*
X25413Y50778D2*
X25691Y50780D1*
Y50778D1*
X25413D1*
G37*
G36*
Y50777D2*
X25691Y50778D1*
X25692Y50777D1*
X25413D1*
G37*
G36*
Y50772D2*
X25692Y50777D1*
Y50772D1*
X25413D1*
G37*
G36*
X26565Y50777D2*
X26845D1*
X26564Y50772D1*
X26565Y50777D1*
G37*
G36*
X25419Y50738D2*
X25692Y50772D1*
X25694Y50738D1*
X25419D1*
G37*
G36*
X26564Y50772D2*
X26844D1*
X26563Y50738D1*
X26564Y50772D1*
G37*
G36*
X25419Y50735D2*
X25694Y50738D1*
Y50735D1*
X25419D1*
G37*
G36*
X26563Y50738D2*
X26839D1*
X26563Y50735D1*
Y50738D1*
G37*
G36*
X25421Y50721D2*
X25694Y50735D1*
X25696Y50721D1*
X25421D1*
G37*
G36*
X26563Y50735D2*
X26839D1*
X26561Y50721D1*
X26563Y50735D1*
G37*
G36*
X25422Y50716D2*
X25696Y50721D1*
Y50716D1*
X25422D1*
G37*
G36*
X26561Y50721D2*
X26836D1*
X26560Y50716D1*
X26561Y50721D1*
G37*
G36*
X25427Y50696D2*
X25696Y50716D1*
X25699Y50696D1*
X25427D1*
G37*
G36*
X26560Y50716D2*
X26835D1*
X26557Y50696D1*
X26560Y50716D1*
G37*
G36*
X25427Y50695D2*
X25699Y50696D1*
Y50695D1*
X25427D1*
G37*
G36*
X26557Y50696D2*
X26830D1*
X26557Y50695D1*
Y50696D1*
G37*
G36*
X25435Y50665D2*
X25699Y50695D1*
X25707Y50665D1*
X25435D1*
G37*
G36*
X26557Y50695D2*
X26829D1*
X26550Y50665D1*
X26557Y50695D1*
G37*
G36*
X25436Y50661D2*
X25707Y50665D1*
X25708Y50661D1*
X25436D1*
G37*
G36*
X26550Y50665D2*
X26821D1*
X26549Y50661D1*
X26550Y50665D1*
G37*
G36*
X25437Y50658D2*
X25708Y50661D1*
Y50658D1*
X25437D1*
G37*
G36*
X26549Y50661D2*
X26819D1*
X26548Y50658D1*
X26549Y50661D1*
G37*
G36*
X25437Y50657D2*
X25708Y50658D1*
X25709Y50657D1*
X25437D1*
G37*
G36*
X26548Y50658D2*
X26818D1*
X26548Y50657D1*
Y50658D1*
G37*
G36*
X25451Y50623D2*
X25709Y50657D1*
X25721Y50623D1*
X25451D1*
G37*
G36*
X26548Y50657D2*
X26818D1*
X26535Y50623D1*
X26548Y50657D1*
G37*
G36*
X25451Y50622D2*
X25721Y50623D1*
X25722Y50622D1*
X25451D1*
G37*
G36*
X26535Y50623D2*
X26804D1*
X26534Y50622D1*
X26535Y50623D1*
G37*
G36*
X25455Y50611D2*
X25722Y50622D1*
X25727Y50611D1*
X25455D1*
G37*
G36*
X26534Y50622D2*
X26803D1*
X26529Y50611D1*
X26534Y50622D1*
G37*
G36*
X25456Y50608D2*
X25727Y50611D1*
X25729Y50608D1*
X25456D1*
G37*
G36*
X26529Y50611D2*
X26799D1*
X26528Y50608D1*
X26529Y50611D1*
G37*
G36*
X25466Y50588D2*
X25729Y50608D1*
X25738Y50588D1*
X25466D1*
G37*
G36*
X26528Y50608D2*
X26798D1*
X26517Y50588D1*
X26528Y50608D1*
G37*
G36*
X25466Y50587D2*
X25738Y50588D1*
X25739Y50587D1*
X25466D1*
G37*
G36*
X26517Y50588D2*
X26787D1*
X26517Y50587D1*
Y50588D1*
G37*
G36*
X25481Y50558D2*
X25739Y50587D1*
X25757Y50558D1*
X25481D1*
G37*
G36*
X26517Y50587D2*
X26787D1*
X26498Y50558D1*
X26517Y50587D1*
G37*
G36*
X25482Y50556D2*
X25757Y50558D1*
X25759Y50556D1*
X25482D1*
G37*
G36*
X26498Y50558D2*
X26772D1*
X26497Y50556D1*
X26498Y50558D1*
G37*
G36*
X25482Y50556D2*
X25759D1*
D1*
X25482D1*
G37*
G36*
X26497D2*
X26770D1*
X26496D1*
X26497D1*
G37*
G36*
X25482D2*
X25759D1*
D1*
X25482D1*
G37*
G36*
X26496D2*
X26770D1*
X26496D1*
G37*
G36*
X25500Y50526D2*
X25759Y50556D1*
X25783Y50526D1*
X25500D1*
G37*
G36*
X26496Y50556D2*
X26770D1*
X26472Y50526D1*
X26496Y50556D1*
G37*
G36*
X25512Y50508D2*
X25783Y50526D1*
X25802Y50508D1*
X25512D1*
G37*
G36*
X26472Y50526D2*
X26750D1*
X26453Y50508D1*
X26472Y50526D1*
G37*
G36*
X25513Y50505D2*
X25802Y50508D1*
X25804Y50505D1*
X25513D1*
G37*
G36*
X26453Y50508D2*
X26738D1*
X26451Y50505D1*
X26453Y50508D1*
G37*
G36*
X25519Y50497D2*
X25804Y50505D1*
X25812Y50497D1*
X25519D1*
G37*
G36*
X26451Y50505D2*
X26737D1*
X26443Y50497D1*
X26451Y50505D1*
G37*
G36*
X25520Y50496D2*
X25812Y50497D1*
X25814Y50496D1*
X25520D1*
G37*
G36*
X26443Y50497D2*
X26731D1*
X26441Y50496D1*
X26443Y50497D1*
G37*
G36*
X25522Y50494D2*
X25814Y50496D1*
X25816Y50494D1*
X25522D1*
G37*
G36*
X26441Y50496D2*
X26729D1*
X26439Y50494D1*
X26441Y50496D1*
G37*
G36*
X25523Y50493D2*
X25816Y50494D1*
X25818Y50493D1*
X25523D1*
G37*
G36*
X26439Y50494D2*
X26728D1*
X26437Y50493D1*
X26439Y50494D1*
G37*
G36*
X25524Y50490D2*
X25818Y50493D1*
X25820Y50490D1*
X25524D1*
G37*
G36*
X26437Y50493D2*
X26727D1*
X26435Y50490D1*
X26437Y50493D1*
G37*
G36*
X25526Y50489D2*
X25820Y50490D1*
X25822Y50489D1*
X25526D1*
G37*
G36*
X26435Y50490D2*
X26725D1*
X26432Y50489D1*
X26435Y50490D1*
G37*
G36*
X25527Y50487D2*
X25822Y50489D1*
X25824Y50487D1*
X25527D1*
G37*
G36*
X26432Y50489D2*
X26724D1*
X26431Y50487D1*
X26432Y50489D1*
G37*
G36*
X25528Y50486D2*
X25824Y50487D1*
X25827Y50486D1*
X25528D1*
G37*
G36*
X26431Y50487D2*
X26722D1*
X26428Y50486D1*
X26431Y50487D1*
G37*
G36*
X25530Y50483D2*
X25827Y50486D1*
X25829Y50483D1*
X25530D1*
G37*
G36*
X26428Y50486D2*
X26721D1*
X26426Y50483D1*
X26428Y50486D1*
G37*
G36*
X25530Y50483D2*
X25829D1*
X25830D1*
X25530D1*
G37*
G36*
X26426D2*
X26719D1*
X26425D1*
X26426D1*
G37*
G36*
X25531Y50482D2*
X25830Y50483D1*
Y50482D1*
X25531D1*
G37*
G36*
X26425Y50483D2*
X26719D1*
X26425Y50482D1*
Y50483D1*
G37*
G36*
X25531Y50482D2*
X25830D1*
X25831D1*
X25531D1*
G37*
G36*
X26425D2*
X26719D1*
X26424D1*
X26425D1*
G37*
G36*
X25531D2*
X25831D1*
D1*
X25531D1*
G37*
G36*
X26424D2*
X26718D1*
X26424D1*
D1*
G37*
G36*
X25531Y50481D2*
X25831Y50482D1*
X25832Y50481D1*
X25531D1*
G37*
G36*
X26424Y50482D2*
X26718D1*
X26423Y50481D1*
X26424Y50482D1*
G37*
G36*
X25532Y50481D2*
X25832D1*
X25833D1*
X25532D1*
G37*
G36*
X26423D2*
X26718D1*
X26422D1*
X26423D1*
G37*
G36*
X25532Y50480D2*
X25833Y50481D1*
Y50480D1*
X25532D1*
G37*
G36*
X26422Y50481D2*
X26717D1*
X26422Y50480D1*
Y50481D1*
G37*
G36*
X25533Y50480D2*
X25833D1*
X25834D1*
X25533D1*
G37*
G36*
X26422D2*
X26717D1*
X26421D1*
X26422D1*
G37*
G36*
X25533D2*
X25834D1*
D1*
X25533D1*
G37*
G36*
X26421D2*
X26716D1*
X26421D1*
G37*
G36*
X25533Y50479D2*
X25834Y50480D1*
X25836Y50479D1*
X25533D1*
G37*
G36*
X26421Y50480D2*
X26716D1*
X26419Y50479D1*
X26421Y50480D1*
G37*
G36*
X25534Y50478D2*
X25836Y50479D1*
X25837Y50478D1*
X25534D1*
G37*
G36*
X26419Y50479D2*
X26715D1*
X26418Y50478D1*
X26419Y50479D1*
G37*
G36*
X25535Y50477D2*
X25837Y50478D1*
X25839Y50477D1*
X25535D1*
G37*
G36*
X26418Y50478D2*
X26714D1*
X26416Y50477D1*
X26418Y50478D1*
G37*
G36*
X25536Y50475D2*
X25839Y50477D1*
X25840Y50475D1*
X25536D1*
G37*
G36*
X26416Y50477D2*
X26714D1*
X26415Y50475D1*
X26416Y50477D1*
G37*
G36*
X25537Y50474D2*
X25840Y50475D1*
X25842Y50474D1*
X25537D1*
G37*
G36*
X26415Y50475D2*
X26713D1*
X26413Y50474D1*
X26415Y50475D1*
G37*
G36*
X25538Y50473D2*
X25842Y50474D1*
X25844Y50473D1*
X25538D1*
G37*
G36*
X26413Y50474D2*
X26711D1*
X26411Y50473D1*
X26413Y50474D1*
G37*
G36*
X25539Y50472D2*
X25844Y50473D1*
X25845Y50472D1*
X25539D1*
G37*
G36*
X26411Y50473D2*
X26711D1*
X26410Y50472D1*
X26411Y50473D1*
G37*
G36*
X25539Y50471D2*
X25845Y50472D1*
X25847Y50471D1*
X25539D1*
G37*
G36*
X26410Y50472D2*
X26710D1*
X26408Y50471D1*
X26410Y50472D1*
G37*
G36*
X25540Y50471D2*
X25847D1*
D1*
X25540D1*
G37*
G36*
X26408D2*
X26709D1*
X26408D1*
G37*
G36*
X25540Y50470D2*
X25847Y50471D1*
X25848Y50470D1*
X25540D1*
G37*
G36*
X26408Y50471D2*
X26709D1*
X26407Y50470D1*
X26408Y50471D1*
G37*
G36*
X25540Y50470D2*
X25848D1*
D1*
X25540D1*
G37*
G36*
X26407D2*
X26709D1*
X26407D1*
D1*
G37*
G36*
X25541Y50468D2*
X25848Y50470D1*
X25849Y50468D1*
X25541D1*
G37*
G36*
X26407Y50470D2*
X26708D1*
X26406Y50468D1*
X26407Y50470D1*
G37*
G36*
X25541Y50468D2*
X25849D1*
X25850D1*
X25541D1*
G37*
G36*
X26406D2*
X26708D1*
X26405D1*
X26406D1*
G37*
G36*
X25542D2*
X25850D1*
X25851D1*
X25542D1*
G37*
G36*
X26405D2*
X26707D1*
X26404D1*
X26405D1*
G37*
G36*
X25542Y50467D2*
X25851Y50468D1*
Y50467D1*
X25542D1*
G37*
G36*
X26404Y50468D2*
X26707D1*
X26404Y50467D1*
Y50468D1*
G37*
G36*
X25542Y50467D2*
X25851D1*
X25852D1*
X25542D1*
G37*
G36*
X26404D2*
X26706D1*
X26403D1*
X26404D1*
G37*
G36*
X25543Y50466D2*
X25852Y50467D1*
X25853Y50466D1*
X25543D1*
G37*
G36*
X26403Y50467D2*
X26706D1*
X26402Y50466D1*
X26403Y50467D1*
G37*
G36*
X25544Y50465D2*
X25853Y50466D1*
X25854Y50465D1*
X25544D1*
G37*
G36*
X26402Y50466D2*
X26706D1*
X26400Y50465D1*
X26402Y50466D1*
G37*
G36*
X25544Y50464D2*
X25854Y50465D1*
X25856Y50464D1*
X25544D1*
G37*
G36*
X26400Y50465D2*
X26705D1*
X26399Y50464D1*
X26400Y50465D1*
G37*
G36*
X25545Y50464D2*
X25856D1*
X25858D1*
X25545D1*
G37*
G36*
X26399D2*
X26704D1*
X26397D1*
X26399D1*
G37*
G36*
X25546Y50463D2*
X25858Y50464D1*
X25859Y50463D1*
X25546D1*
G37*
G36*
X26397Y50464D2*
X26703D1*
X26396Y50463D1*
X26397Y50464D1*
G37*
G36*
X25547Y50462D2*
X25859Y50463D1*
X25861Y50462D1*
X25547D1*
G37*
G36*
X26396Y50463D2*
X26702D1*
X26394Y50462D1*
X26396Y50463D1*
G37*
G36*
X25547Y50460D2*
X25861Y50462D1*
X25862Y50460D1*
X25547D1*
G37*
G36*
X26394Y50462D2*
X26701D1*
X26392Y50460D1*
X26394Y50462D1*
G37*
G36*
X25548Y50459D2*
X25862Y50460D1*
X25864Y50459D1*
X25548D1*
G37*
G36*
X26393Y50460D2*
X26701D1*
X26391Y50459D1*
X26393Y50460D1*
G37*
G36*
X25549Y50458D2*
X25864Y50459D1*
X25866Y50458D1*
X25549D1*
G37*
G36*
X26391Y50459D2*
X26700D1*
X26389Y50458D1*
X26391Y50459D1*
G37*
G36*
X25549Y50458D2*
X25866D1*
X25867D1*
X25549D1*
G37*
G36*
X26389D2*
X26699D1*
X26388D1*
X26389D1*
G37*
G36*
X25550Y50457D2*
X25867Y50458D1*
Y50457D1*
X25550D1*
G37*
G36*
X26388Y50458D2*
X26698D1*
X26388Y50457D1*
Y50458D1*
G37*
G36*
X25550Y50457D2*
X25867D1*
X25868D1*
X25550D1*
G37*
G36*
X26388D2*
X26698D1*
X26387D1*
X26388D1*
G37*
G36*
X25550D2*
X25868D1*
D1*
X25550D1*
G37*
G36*
X26387D2*
X26698D1*
X26387D1*
G37*
G36*
X25550Y50456D2*
X25868Y50457D1*
Y50456D1*
X25550D1*
G37*
G36*
X26387Y50457D2*
X26698D1*
X26386Y50456D1*
X26387Y50457D1*
G37*
G36*
X25551Y50456D2*
X25868D1*
X25869D1*
X25551D1*
G37*
G36*
X26386D2*
X26697D1*
X26386D1*
D1*
G37*
G36*
X25551D2*
X25869D1*
X25870D1*
X25551D1*
G37*
G36*
X26386D2*
X26697D1*
X26385D1*
X26386D1*
G37*
G36*
X25552Y50455D2*
X25870Y50456D1*
X25871Y50455D1*
X25552D1*
G37*
G36*
X26385Y50456D2*
X26696D1*
X26384Y50455D1*
X26385Y50456D1*
G37*
G36*
X25552Y50455D2*
X25871D1*
X25872D1*
X25552D1*
G37*
G36*
X26384D2*
X26696D1*
X26383D1*
X26384D1*
G37*
G36*
X25553Y50453D2*
X25872Y50455D1*
X25873Y50453D1*
X25553D1*
G37*
G36*
X26383Y50455D2*
X26696D1*
X26382Y50453D1*
X26383Y50455D1*
G37*
G36*
X25554Y50452D2*
X25873Y50453D1*
X25875Y50452D1*
X25554D1*
G37*
G36*
X26382Y50453D2*
X26695D1*
X26380Y50452D1*
X26382Y50453D1*
G37*
G36*
X25555Y50451D2*
X25875Y50452D1*
X25877Y50451D1*
X25555D1*
G37*
G36*
X26380Y50452D2*
X26693D1*
X26378Y50451D1*
X26380Y50452D1*
G37*
G36*
X25556Y50450D2*
X25877Y50451D1*
X25879Y50450D1*
X25556D1*
G37*
G36*
X26378Y50451D2*
X26692D1*
X26376Y50450D1*
X26378Y50451D1*
G37*
G36*
X25557Y50450D2*
X25879D1*
X25880D1*
X25557D1*
G37*
G36*
X26376D2*
X26692D1*
X26375D1*
X26376D1*
G37*
G36*
X25557Y50449D2*
X25880Y50450D1*
X25882Y50449D1*
X25557D1*
G37*
G36*
X26375Y50450D2*
X26691D1*
X26373Y50449D1*
X26375Y50450D1*
G37*
G36*
X25558Y50448D2*
X25882Y50449D1*
X25884Y50448D1*
X25558D1*
G37*
G36*
X26373Y50449D2*
X26690D1*
X26371Y50448D1*
X26373Y50449D1*
G37*
G36*
X25559Y50447D2*
X25884Y50448D1*
X25886Y50447D1*
X25559D1*
G37*
G36*
X26371Y50448D2*
X26689D1*
X26369Y50447D1*
X26371Y50448D1*
G37*
G36*
X25559Y50447D2*
X25886D1*
D1*
X25559D1*
G37*
G36*
X26369D2*
X26688D1*
X26369D1*
D1*
G37*
G36*
X25560Y50445D2*
X25886Y50447D1*
X25887Y50445D1*
X25560D1*
G37*
G36*
X26369Y50447D2*
X26688D1*
X26368Y50445D1*
X26369Y50447D1*
G37*
G36*
X25560Y50445D2*
X25887D1*
D1*
X25560D1*
G37*
G36*
X26368D2*
X26687D1*
X26367D1*
X26368D1*
G37*
G36*
X25560D2*
X25887D1*
X25888D1*
X25560D1*
G37*
G36*
X26367D2*
X26687D1*
X26367D1*
D1*
G37*
G36*
X25561D2*
X25888D1*
X25889D1*
X25561D1*
G37*
G36*
X26367D2*
X26687D1*
X26366D1*
X26367D1*
G37*
G36*
X25561Y50444D2*
X25889Y50445D1*
X25890Y50444D1*
X25561D1*
G37*
G36*
X26366Y50445D2*
X26686D1*
X26365Y50444D1*
X26366Y50445D1*
G37*
G36*
X25562Y50444D2*
X25890D1*
D1*
X25562D1*
G37*
G36*
X26365D2*
X26686D1*
X26364D1*
X26365D1*
G37*
G36*
X25562Y50443D2*
X25890Y50444D1*
X25891Y50443D1*
X25562D1*
G37*
G36*
X26364Y50444D2*
X26685D1*
X26364Y50443D1*
Y50444D1*
G37*
G36*
X25563Y50443D2*
X25891D1*
X25893D1*
X25563D1*
G37*
G36*
X26364D2*
X26685D1*
X26362D1*
X26364D1*
G37*
G36*
X25564Y50442D2*
X25893Y50443D1*
X25895Y50442D1*
X25564D1*
G37*
G36*
X26362Y50443D2*
X26684D1*
X26360Y50442D1*
X26362Y50443D1*
G37*
G36*
X25565Y50441D2*
X25895Y50442D1*
X25897Y50441D1*
X25565D1*
G37*
G36*
X26360Y50442D2*
X26683D1*
X26358Y50441D1*
X26360Y50442D1*
G37*
G36*
X25566Y50440D2*
X25897Y50441D1*
X25899Y50440D1*
X25566D1*
G37*
G36*
X26358Y50441D2*
X26682D1*
X26356Y50440D1*
X26358Y50441D1*
G37*
G36*
X25566Y50439D2*
X25899Y50440D1*
X25901Y50439D1*
X25566D1*
G37*
G36*
X26356Y50440D2*
X26681D1*
X26354Y50439D1*
X26356Y50440D1*
G37*
G36*
X25567Y50437D2*
X25901Y50439D1*
X25903Y50437D1*
X25567D1*
G37*
G36*
X26354Y50439D2*
X26680D1*
X26352Y50437D1*
X26354Y50439D1*
G37*
G36*
X25567Y50437D2*
X25903D1*
D1*
X25567D1*
G37*
G36*
X26352D2*
X26679D1*
X26352D1*
D1*
G37*
G36*
X25568Y50436D2*
X25903Y50437D1*
X25905Y50436D1*
X25568D1*
G37*
G36*
X26352Y50437D2*
X26679D1*
X26350Y50436D1*
X26352Y50437D1*
G37*
G36*
X25569Y50435D2*
X25905Y50436D1*
X25907Y50435D1*
X25569D1*
G37*
G36*
X26350Y50436D2*
X26678D1*
X26348Y50435D1*
X26350Y50436D1*
G37*
G36*
X25569Y50435D2*
X25907D1*
X25908D1*
X25569D1*
G37*
G36*
X26348D2*
X26677D1*
X26347D1*
X26348D1*
G37*
G36*
X25569D2*
X25908D1*
D1*
X25569D1*
G37*
G36*
X26347D2*
X26677D1*
X26347D1*
D1*
G37*
G36*
X25570D2*
X25908D1*
D1*
X25570D1*
G37*
G36*
X26347D2*
X26677D1*
X26346D1*
X26347D1*
G37*
G36*
X25570D2*
X25908D1*
X25909D1*
X25570D1*
G37*
G36*
X26346D2*
X26677D1*
X26346D1*
D1*
G37*
G36*
X25570D2*
X25909D1*
D1*
X25570D1*
G37*
G36*
X26346D2*
X26677D1*
X26346D1*
D1*
G37*
G36*
X25570Y50434D2*
X25909Y50435D1*
X25910Y50434D1*
X25570D1*
G37*
G36*
X26346Y50435D2*
X26676D1*
X26345Y50434D1*
X26346Y50435D1*
G37*
G36*
X25570Y50434D2*
X25910D1*
D1*
X25570D1*
G37*
G36*
X26345D2*
X26676D1*
X26345D1*
D1*
G37*
G36*
X25570D2*
X25910D1*
X25911D1*
X25570D1*
G37*
G36*
X26345D2*
X26676D1*
X26344D1*
X26345D1*
G37*
G36*
X25574Y50430D2*
X25911Y50434D1*
X25918Y50430D1*
X25574D1*
G37*
G36*
X26344Y50434D2*
X26676D1*
X26336Y50430D1*
X26344Y50434D1*
G37*
G36*
X25577Y50427D2*
X25918Y50430D1*
X25926Y50427D1*
X25577D1*
G37*
G36*
X26336Y50430D2*
X26672D1*
X26329Y50427D1*
X26336Y50430D1*
G37*
G36*
X25580Y50424D2*
X25926Y50427D1*
X25935Y50424D1*
X25580D1*
G37*
G36*
X26329Y50427D2*
X26669D1*
X26320Y50424D1*
X26329Y50427D1*
G37*
G36*
X25583Y50420D2*
X25935Y50424D1*
X25943Y50420D1*
X25583D1*
G37*
G36*
X26320Y50424D2*
X26666D1*
X26312Y50420D1*
X26320Y50424D1*
G37*
G36*
X25585Y50418D2*
X25943Y50420D1*
X25951Y50418D1*
X25585D1*
G37*
G36*
X26312Y50420D2*
X26663D1*
X26304Y50418D1*
X26312Y50420D1*
G37*
G36*
X25588Y50416D2*
X25951Y50418D1*
X25960Y50416D1*
X25588D1*
G37*
G36*
X26304Y50418D2*
X26660D1*
X26295Y50416D1*
X26304Y50418D1*
G37*
G36*
X25590Y50412D2*
X25960Y50414D1*
X25968Y50412D1*
X25590D1*
G37*
G36*
X26295Y50414D2*
X26657D1*
X26287Y50412D1*
X26295Y50414D1*
G37*
G36*
X25592Y50410D2*
X25968Y50412D1*
X25977Y50410D1*
X25592D1*
G37*
G36*
X26287Y50412D2*
X26655D1*
X26278Y50410D1*
X26287Y50412D1*
G37*
G36*
X26565Y45700D2*
X26848D1*
X26563Y45665D1*
X26565Y45700D1*
G37*
G36*
X26563Y45665D2*
X26847D1*
X26561Y45640D1*
X26563Y45665D1*
G37*
G36*
X26561Y45640D2*
X26846D1*
X26559Y45632D1*
X26561Y45640D1*
G37*
G36*
X26559Y45632D2*
X26845D1*
X26558Y45625D1*
X26559Y45632D1*
G37*
G36*
X26558Y45625D2*
X26844D1*
X26549Y45586D1*
X26558Y45625D1*
G37*
G36*
X26549Y45586D2*
X26839D1*
X26548Y45585D1*
X26549Y45586D1*
G37*
G36*
X26548Y45585D2*
X26839D1*
X26540Y45564D1*
X26548Y45585D1*
G37*
G36*
X26540Y45564D2*
X26836D1*
X26532Y45543D1*
X26540Y45564D1*
G37*
G36*
X26532Y45543D2*
X26832D1*
X26529Y45538D1*
X26532Y45543D1*
G37*
G36*
X26529Y45538D2*
X26830D1*
X26507Y45503D1*
X26529Y45538D1*
G37*
G36*
X26507Y45503D2*
X26822D1*
X26504Y45498D1*
X26507Y45503D1*
G37*
G36*
X26504Y45498D2*
X26821D1*
X26502Y45495D1*
X26504Y45498D1*
G37*
G36*
X26502Y45495D2*
X26820D1*
X26472Y45463D1*
X26502Y45495D1*
G37*
G36*
X26472Y45463D2*
X26809D1*
X26466Y45458D1*
X26472Y45463D1*
G37*
G36*
X26466Y45458D2*
X26808D1*
X26437Y45437D1*
X26466Y45458D1*
G37*
G36*
X26438Y45437D2*
X26800D1*
X26423Y45427D1*
X26438Y45437D1*
G37*
G36*
X26423Y45427D2*
X26796D1*
X26415Y45423D1*
X26423Y45427D1*
G37*
G36*
X26415Y45423D2*
X26794D1*
X26372Y45402D1*
X26415Y45423D1*
G37*
G36*
X26372Y45402D2*
X26784D1*
X26313Y45382D1*
X26372Y45402D1*
G37*
G36*
X26049Y46361D2*
X26129Y46364D1*
X26208Y46361D1*
X26049D1*
G37*
G36*
D2*
X26208D1*
X25977Y46353D1*
X26049Y46361D1*
G37*
G36*
X25977Y46353D2*
X26208Y46361D1*
X26283Y46353D1*
X25977D1*
G37*
G36*
D2*
X26283D1*
X25974D1*
X25977D1*
G37*
G36*
X25974D2*
X26283D1*
X26284D1*
X25974D1*
G37*
G36*
Y46351D2*
X26284D1*
X25907Y46339D1*
X25974Y46351D1*
G37*
G36*
X25907Y46339D2*
X26284Y46351D1*
X26354Y46339D1*
X25907D1*
G37*
G36*
D2*
X26354D1*
X25903Y46338D1*
X25907Y46339D1*
G37*
G36*
X25903Y46338D2*
X26354Y46339D1*
X26356Y46338D1*
X25903D1*
G37*
G36*
D2*
X26356D1*
X25840Y46319D1*
X25903Y46338D1*
G37*
G36*
X25840Y46319D2*
X26356Y46338D1*
X26421Y46319D1*
X25840D1*
G37*
G36*
D2*
X26421D1*
X25836Y46317D1*
X25840Y46319D1*
G37*
G36*
X25836Y46317D2*
X26421Y46319D1*
X26424Y46317D1*
X25836D1*
G37*
G36*
D2*
X26424D1*
X25777Y46294D1*
X25836Y46317D1*
G37*
G36*
X25777Y46294D2*
X26424Y46317D1*
X26484Y46294D1*
X25777D1*
G37*
G36*
D2*
X26484D1*
X25772Y46292D1*
X25777Y46294D1*
G37*
G36*
X25772Y46292D2*
X26484Y46294D1*
X26488Y46292D1*
X25772D1*
G37*
G36*
D2*
X26488D1*
X25719Y46263D1*
X25772Y46292D1*
G37*
G36*
X25719Y46263D2*
X26488Y46292D1*
X26544Y46263D1*
X25719D1*
G37*
G36*
D2*
X26544D1*
X25713Y46259D1*
X25719Y46263D1*
G37*
G36*
X25713Y46259D2*
X26544Y46263D1*
X26549Y46259D1*
X25713D1*
G37*
G36*
D2*
X26549D1*
X25664Y46227D1*
X25713Y46259D1*
G37*
G36*
X25664Y46227D2*
X26549Y46259D1*
X26599Y46227D1*
X25664D1*
G37*
G36*
D2*
X26599D1*
X25658Y46222D1*
X25664Y46227D1*
G37*
G36*
X25658Y46222D2*
X26599Y46227D1*
X26605Y46222D1*
X25658D1*
G37*
G36*
D2*
X26605D1*
X25613Y46184D1*
X25658Y46222D1*
G37*
G36*
X25613Y46184D2*
X26605Y46222D1*
X26651Y46184D1*
X25613D1*
G37*
G36*
D2*
X26651D1*
X25606Y46179D1*
X25613Y46184D1*
G37*
G36*
X25606Y46179D2*
X26651Y46184D1*
X26657Y46179D1*
X25606D1*
G37*
G36*
D2*
X26657D1*
X25567Y46137D1*
X25606Y46179D1*
G37*
G36*
X25567Y46137D2*
X26657Y46179D1*
X26697Y46137D1*
X25567D1*
G37*
G36*
D2*
X26697D1*
X25561Y46130D1*
X25567Y46137D1*
G37*
G36*
X25561Y46130D2*
X26697Y46137D1*
X26703Y46130D1*
X25561D1*
G37*
G36*
D2*
X26703D1*
X25527Y46087D1*
X25561Y46130D1*
G37*
G36*
X25527Y46087D2*
X26703Y46130D1*
X26738Y46087D1*
X25527D1*
G37*
G36*
D2*
X26738D1*
X25521Y46080D1*
X25527Y46087D1*
G37*
G36*
X25521Y46080D2*
X26738Y46087D1*
X26743Y46080D1*
X25521D1*
G37*
G36*
D2*
X26743D1*
X25494Y46035D1*
X25521Y46080D1*
G37*
G36*
X25494Y46035D2*
X26743Y46080D1*
X26770Y46035D1*
X25494D1*
G37*
G36*
D2*
X26056D1*
X25493Y46033D1*
X25494Y46035D1*
G37*
G36*
X26056Y46033D2*
X26770Y46035D1*
X26772Y46033D1*
X26056D1*
G37*
G36*
X25493D2*
X26036D1*
X25491Y46030D1*
X25493Y46033D1*
G37*
G36*
X26056Y46030D2*
X26772Y46033D1*
Y46030D1*
X26056D1*
G37*
G36*
X25491D2*
X26015D1*
X25487Y46023D1*
X25491Y46030D1*
G37*
G36*
X26056Y46023D2*
X26772Y46030D1*
X26776Y46023D1*
X26056D1*
G37*
G36*
X25487D2*
X25978D1*
X25487D1*
G37*
G36*
X26056D2*
X26776D1*
D1*
X26056D1*
G37*
G36*
X25487D2*
X25977D1*
X25483Y46014D1*
X25487Y46023D1*
G37*
G36*
X26056Y46014D2*
X26776Y46023D1*
X26781Y46014D1*
X26056D1*
G37*
G36*
X25483D2*
X25941D1*
X25482D1*
X25483D1*
G37*
G36*
X26315D2*
X26781D1*
D1*
X26315D1*
G37*
G36*
X25482D2*
X25940D1*
X25481Y46010D1*
X25482Y46014D1*
G37*
G36*
X26328Y46010D2*
X26781Y46014D1*
X26782Y46010D1*
X26328D1*
G37*
G36*
X25481D2*
X25930D1*
X25479Y46006D1*
X25481Y46010D1*
G37*
G36*
X26342Y46006D2*
X26782Y46010D1*
X26785Y46006D1*
X26342D1*
G37*
G36*
X25479D2*
X25917D1*
X25477Y46001D1*
X25479Y46006D1*
G37*
G36*
X26353Y46001D2*
X26785Y46006D1*
X26786Y46001D1*
X26353D1*
G37*
G36*
X25477D2*
X25906D1*
X25477Y46000D1*
Y46001D1*
G37*
G36*
X26356Y46000D2*
X26786Y46001D1*
X26787Y46000D1*
X26356D1*
G37*
G36*
X25477D2*
X25904D1*
X25474Y45996D1*
X25477Y46000D1*
G37*
G36*
X26369Y45996D2*
X26787Y46000D1*
X26790Y45996D1*
X26369D1*
G37*
G36*
X25474D2*
X25892D1*
X25473Y45993D1*
X25474Y45996D1*
G37*
G36*
X26372Y45993D2*
X26790Y45996D1*
Y45993D1*
X26372D1*
G37*
G36*
X25473D2*
X25889D1*
X25471Y45990D1*
X25473Y45993D1*
G37*
G36*
X26382Y45990D2*
X26790Y45993D1*
X26792Y45990D1*
X26382D1*
G37*
G36*
X25471D2*
X25880D1*
X25470Y45987D1*
X25471Y45990D1*
G37*
G36*
X26387Y45987D2*
X26792Y45990D1*
X26794Y45987D1*
X26387D1*
G37*
G36*
X25470D2*
X25873D1*
X25468Y45983D1*
X25470Y45987D1*
G37*
G36*
X26394Y45983D2*
X26794Y45987D1*
X26795Y45983D1*
X26394D1*
G37*
G36*
X25468D2*
X25868D1*
X25465Y45976D1*
X25468Y45983D1*
G37*
G36*
X26406Y45976D2*
X26795Y45983D1*
X26798Y45976D1*
X26406D1*
G37*
G36*
X25465D2*
X25856D1*
X25465Y45975D1*
Y45976D1*
G37*
G36*
X26408Y45975D2*
X26798Y45976D1*
X26799Y45975D1*
X26408D1*
G37*
G36*
X25465D2*
X25854D1*
X25464D1*
X25465D1*
G37*
G36*
X26409D2*
X26799D1*
D1*
X26409D1*
G37*
G36*
X25464D2*
X25854D1*
X25462Y45969D1*
X25464Y45975D1*
G37*
G36*
X26418Y45969D2*
X26799Y45975D1*
X26801Y45969D1*
X26418D1*
G37*
G36*
X25462D2*
X25844D1*
X25462D1*
G37*
G36*
X26419D2*
X26801D1*
D1*
X26419D1*
G37*
G36*
X25462D2*
X25843D1*
X25460Y45965D1*
X25462Y45969D1*
G37*
G36*
X26426Y45965D2*
X26801Y45969D1*
X26803Y45965D1*
X26426D1*
G37*
G36*
X25460D2*
X25837D1*
X25459Y45962D1*
X25460Y45965D1*
G37*
G36*
X26429Y45962D2*
X26803Y45965D1*
X26804Y45962D1*
X26429D1*
G37*
G36*
X25459D2*
X25833D1*
X25456Y45954D1*
X25459Y45962D1*
G37*
G36*
X26440Y45954D2*
X26804Y45962D1*
X26807Y45954D1*
X26440D1*
G37*
G36*
X25456D2*
X25822D1*
X25455Y45953D1*
X25456Y45954D1*
G37*
G36*
X26442Y45953D2*
X26807Y45954D1*
Y45953D1*
X26442D1*
G37*
G36*
X25455D2*
X25820D1*
X25454Y45949D1*
X25455Y45953D1*
G37*
G36*
X26447Y45949D2*
X26807Y45953D1*
X26808Y45949D1*
X26447D1*
G37*
G36*
X25454D2*
X25815D1*
X25453Y45946D1*
X25454Y45949D1*
G37*
G36*
X26451Y45946D2*
X26808Y45949D1*
X26809Y45946D1*
X26451D1*
G37*
G36*
X25453D2*
X25812D1*
X25450Y45937D1*
X25453Y45946D1*
G37*
G36*
X26461Y45937D2*
X26809Y45946D1*
X26812Y45937D1*
X26461D1*
G37*
G36*
X25450D2*
X25802D1*
X25450D1*
G37*
G36*
X26461D2*
X26812D1*
D1*
X26461D1*
G37*
G36*
X25450D2*
X25801D1*
X25447Y45928D1*
X25450Y45937D1*
G37*
G36*
X26471Y45928D2*
X26812Y45937D1*
X26816Y45928D1*
X26471D1*
G37*
G36*
X25447D2*
X25792D1*
X25446Y45927D1*
X25447Y45928D1*
G37*
G36*
X26472Y45927D2*
X26816Y45928D1*
Y45927D1*
X26472D1*
G37*
G36*
X25446D2*
X25789D1*
X25444Y45919D1*
X25446Y45927D1*
G37*
G36*
X26480Y45919D2*
X26816Y45927D1*
X26819Y45919D1*
X26480D1*
G37*
G36*
X25444D2*
X25783D1*
X25442Y45913D1*
X25444Y45919D1*
G37*
G36*
X26485Y45913D2*
X26819Y45919D1*
X26821Y45913D1*
X26485D1*
G37*
G36*
X25442D2*
X25778D1*
X25442Y45912D1*
Y45913D1*
G37*
G36*
X26486Y45912D2*
X26821Y45913D1*
Y45912D1*
X26486D1*
G37*
G36*
X25442D2*
X25776D1*
X25441Y45909D1*
X25442Y45912D1*
G37*
G36*
X26489Y45909D2*
X26821Y45912D1*
X26822Y45909D1*
X26489D1*
G37*
G36*
X25441D2*
X25774D1*
X25438Y45901D1*
X25441Y45909D1*
G37*
G36*
X26495Y45901D2*
X26822Y45909D1*
X26824Y45901D1*
X26495D1*
G37*
G36*
X25438D2*
X25767D1*
X25438D1*
G37*
G36*
X26495D2*
X26824D1*
D1*
X26495D1*
G37*
G36*
X25438D2*
X25766D1*
X25437Y45899D1*
X25438Y45901D1*
G37*
G36*
X26497Y45899D2*
X26824Y45901D1*
Y45899D1*
X26497D1*
G37*
G36*
X25437D2*
X25765D1*
X25437Y45898D1*
Y45899D1*
G37*
G36*
X26497Y45898D2*
X26824Y45899D1*
Y45898D1*
X26497D1*
G37*
G36*
X25437D2*
X25765D1*
X25435Y45889D1*
X25437Y45898D1*
G37*
G36*
X26505Y45889D2*
X26824Y45898D1*
X26827Y45889D1*
X26505D1*
G37*
G36*
X25435D2*
X25757D1*
X25433Y45877D1*
X25435Y45889D1*
G37*
G36*
X26512Y45877D2*
X26827Y45889D1*
X26829Y45877D1*
X26512D1*
G37*
G36*
X25433D2*
X25749D1*
X25432Y45875D1*
X25433Y45877D1*
G37*
G36*
X26515Y45875D2*
X26829Y45877D1*
X26830Y45875D1*
X26515D1*
G37*
G36*
X25432D2*
X25747D1*
X25431Y45870D1*
X25432Y45875D1*
G37*
G36*
X26517Y45870D2*
X26830Y45875D1*
X26831Y45870D1*
X26517D1*
G37*
G36*
X25431D2*
X25744D1*
X25430Y45867D1*
X25431Y45870D1*
G37*
G36*
X26519Y45867D2*
X26831Y45870D1*
X26832Y45867D1*
X26519D1*
G37*
G36*
X25430D2*
X25742D1*
X25429Y45860D1*
X25430Y45867D1*
G37*
G36*
X26523Y45860D2*
X26832Y45867D1*
X26834Y45860D1*
X26523D1*
G37*
G36*
X25429D2*
X25738D1*
X25428Y45855D1*
X25429Y45860D1*
G37*
G36*
X26526Y45855D2*
X26834Y45860D1*
Y45855D1*
X26526D1*
G37*
G36*
X25428D2*
X25735D1*
X25426Y45848D1*
X25428Y45855D1*
G37*
G36*
X26530Y45848D2*
X26834Y45855D1*
X26836Y45848D1*
X26530D1*
G37*
G36*
X25426D2*
X25731D1*
X25425Y45846D1*
X25426Y45848D1*
G37*
G36*
X26531Y45846D2*
X26836Y45848D1*
X26837Y45846D1*
X26531D1*
G37*
G36*
X25425D2*
X25730D1*
X25425Y45844D1*
Y45846D1*
G37*
G36*
X26532Y45844D2*
X26837Y45846D1*
Y45844D1*
X26532D1*
G37*
G36*
X25425D2*
X25729D1*
X25423Y45835D1*
X25425Y45844D1*
G37*
G36*
X26536Y45835D2*
X26837Y45844D1*
X26838Y45835D1*
X26536D1*
G37*
G36*
X25423D2*
X25725D1*
X25422Y45832D1*
X25423Y45835D1*
G37*
G36*
X26537Y45832D2*
X26838Y45835D1*
X26839Y45832D1*
X26537D1*
G37*
G36*
X25422D2*
X25723D1*
X25422Y45829D1*
Y45832D1*
G37*
G36*
X26539Y45829D2*
X26839Y45832D1*
Y45829D1*
X26539D1*
G37*
G36*
X25422D2*
X25722D1*
X25421Y45821D1*
X25422Y45829D1*
G37*
G36*
X26542Y45821D2*
X26839Y45829D1*
X26840Y45821D1*
X26542D1*
G37*
G36*
X25421D2*
X25718D1*
X25421Y45820D1*
Y45821D1*
G37*
G36*
X26543Y45820D2*
X26840Y45821D1*
Y45820D1*
X26543D1*
G37*
G36*
X25421D2*
X25718D1*
X25420Y45816D1*
X25421Y45820D1*
G37*
G36*
X26544Y45816D2*
X26840Y45820D1*
Y45816D1*
X26544D1*
G37*
G36*
X25420D2*
X25716D1*
X25419Y45807D1*
X25420Y45816D1*
G37*
G36*
X26547Y45807D2*
X26840Y45816D1*
X26842Y45807D1*
X26547D1*
G37*
G36*
X25419D2*
X25713D1*
X25418Y45795D1*
X25419Y45807D1*
G37*
G36*
X26551Y45795D2*
X26842Y45807D1*
X26843Y45795D1*
X26551D1*
G37*
G36*
X25418D2*
X25709D1*
X25417Y45787D1*
X25418Y45795D1*
G37*
G36*
X26553Y45787D2*
X26843Y45795D1*
X26844Y45787D1*
X26553D1*
G37*
G36*
X25417D2*
X25706D1*
X25416Y45784D1*
X25417Y45787D1*
G37*
G36*
X26554Y45784D2*
X26844Y45787D1*
X26845Y45784D1*
X26554D1*
G37*
G36*
X25416D2*
X25705D1*
X25416Y45783D1*
Y45784D1*
G37*
G36*
X26555Y45783D2*
X26845Y45784D1*
Y45783D1*
X26555D1*
G37*
G36*
X25416D2*
X25705D1*
X25416D1*
G37*
G36*
X26555D2*
X26845D1*
D1*
X26555D1*
G37*
G36*
X25416D2*
X25705D1*
X25416Y45779D1*
Y45783D1*
G37*
G36*
X26555Y45779D2*
X26845Y45783D1*
Y45779D1*
X26555D1*
G37*
G36*
X25416D2*
X25704D1*
X25415Y45770D1*
X25416Y45779D1*
G37*
G36*
X26558Y45770D2*
X26845Y45779D1*
X26846Y45770D1*
X26558D1*
G37*
G36*
X25415D2*
X25702D1*
X25414Y45764D1*
X25415Y45770D1*
G37*
G36*
X26559Y45764D2*
X26846Y45770D1*
Y45764D1*
X26559D1*
G37*
G36*
X25414D2*
X25701D1*
X25414Y45757D1*
Y45764D1*
G37*
G36*
X26560Y45757D2*
X26846Y45764D1*
Y45757D1*
X26560D1*
G37*
G36*
X25414D2*
X25699D1*
X25413Y45751D1*
X25414Y45757D1*
G37*
G36*
X26561Y45751D2*
X26846Y45757D1*
X26847Y45751D1*
X26561D1*
G37*
G36*
X25413D2*
X25698D1*
X25413Y45747D1*
Y45751D1*
G37*
G36*
X26561Y45747D2*
X26847Y45751D1*
Y45747D1*
X26561D1*
G37*
G36*
X25413D2*
X25697D1*
X25413Y45745D1*
Y45747D1*
G37*
G36*
X26562Y45745D2*
X26847Y45747D1*
Y45745D1*
X26562D1*
G37*
G36*
X25413D2*
X25697D1*
X25413Y45744D1*
Y45745D1*
G37*
G36*
X26562Y45744D2*
X26847Y45745D1*
Y45744D1*
X26562D1*
G37*
G36*
X25413D2*
X25697D1*
X25412Y45732D1*
X25413Y45744D1*
G37*
G36*
X26563Y45732D2*
X26847Y45744D1*
Y45732D1*
X26563D1*
G37*
G36*
X25412D2*
X25695D1*
X25412Y45718D1*
Y45732D1*
G37*
G36*
X26564Y45718D2*
X26847Y45732D1*
X26848Y45718D1*
X26564D1*
G37*
G36*
X25412D2*
X25694D1*
X25412Y45716D1*
Y45718D1*
G37*
G36*
X26564Y45716D2*
X26848Y45718D1*
Y45716D1*
X26564D1*
G37*
G36*
X25412D2*
X25693D1*
X25411Y45707D1*
X25412Y45716D1*
G37*
G36*
X26564Y45707D2*
X26848Y45716D1*
Y45707D1*
X26564D1*
G37*
G36*
X25411D2*
X25693D1*
X25411D1*
G37*
G36*
D2*
X25693D1*
X25411D1*
G37*
G36*
D2*
X25693D1*
X25411Y45706D1*
Y45707D1*
G37*
G36*
Y45706D2*
X25693D1*
X25411D1*
G37*
G36*
D2*
X25693D1*
X25411D1*
G37*
G36*
D2*
X25693D1*
X25411D1*
G37*
G36*
D2*
X25693D1*
X25411D1*
G37*
G36*
D2*
X25693D1*
X25411D1*
G37*
G36*
D2*
X25693D1*
X25411Y45690D1*
Y45706D1*
G37*
G36*
Y45663D2*
X25691Y45679D1*
X25692Y45663D1*
X25411D1*
G37*
G36*
Y45650D2*
X25692Y45663D1*
Y45650D1*
X25411D1*
G37*
G36*
X25412Y45638D2*
X25692Y45650D1*
X25694Y45638D1*
X25412D1*
G37*
G36*
X25413Y45623D2*
X25694Y45638D1*
X25695Y45623D1*
X25413D1*
G37*
G36*
X25414Y45612D2*
X25695Y45623D1*
X25697Y45612D1*
X25414D1*
G37*
G36*
X25415Y45596D2*
X25697Y45612D1*
X25699Y45596D1*
X25415D1*
G37*
G36*
X25416Y45587D2*
X25699Y45596D1*
X25702Y45587D1*
X25416D1*
G37*
G36*
X25418Y45572D2*
X25702Y45587D1*
X25706Y45572D1*
X25418D1*
G37*
G36*
X25419Y45563D2*
X25706Y45572D1*
X25708Y45563D1*
X25419D1*
G37*
G36*
X25422Y45548D2*
X25708Y45563D1*
X25713Y45548D1*
X25422D1*
G37*
G36*
X25424Y45540D2*
X25713Y45548D1*
X25717Y45540D1*
X25424D1*
G37*
G36*
X25426Y45526D2*
X25717Y45540D1*
X25723Y45526D1*
X25426D1*
G37*
G36*
X25428Y45516D2*
X25723Y45526D1*
X25728Y45516D1*
X25428D1*
G37*
G36*
X25430Y45504D2*
X25728Y45516D1*
X25734Y45504D1*
X25430D1*
G37*
G36*
X25433Y45493D2*
X25734Y45504D1*
X25742Y45493D1*
X25433D1*
G37*
G36*
X25435Y45485D2*
X25742Y45493D1*
X25747Y45485D1*
X25435D1*
G37*
G36*
X25439Y45471D2*
X25747Y45485D1*
X25759Y45471D1*
X25439D1*
G37*
G36*
X25441Y45465D2*
X25759Y45471D1*
X25763Y45465D1*
X25441D1*
G37*
G36*
X25446Y45448D2*
X25763Y45465D1*
X25779Y45448D1*
X25446D1*
G37*
G36*
X25447Y45446D2*
X25779Y45448D1*
X25781Y45446D1*
X25447D1*
G37*
G36*
X25453Y45427D2*
X25781Y45446D1*
X25801Y45427D1*
X25453D1*
G37*
G36*
X25454Y45425D2*
X25801Y45427D1*
X25803Y45425D1*
X25454D1*
G37*
G36*
X25462Y45405D2*
X25803Y45425D1*
X25826Y45405D1*
X25462D1*
G37*
G36*
X25463Y45404D2*
X25826Y45405D1*
X25827Y45404D1*
X25463D1*
G37*
G36*
X25471Y45385D2*
X25827Y45404D1*
X25852Y45385D1*
X25471D1*
G37*
G36*
X25472Y45382D2*
X25852Y45385D1*
X25854Y45382D1*
X25472D1*
G37*
G36*
X25481Y45364D2*
X25854Y45382D1*
X25879Y45364D1*
X25481D1*
G37*
G36*
X25483Y45359D2*
X25879Y45364D1*
X25885Y45359D1*
X25483D1*
G37*
G36*
X25492Y45344D2*
X25885Y45359D1*
X25907Y45344D1*
X25492D1*
G37*
G36*
X25496Y45336D2*
X25907Y45344D1*
X25918Y45336D1*
X25496D1*
G37*
G36*
X25504Y45324D2*
X25918Y45336D1*
X25937Y45324D1*
X25504D1*
G37*
G36*
X25511Y45313D2*
X25937Y45324D1*
X25954Y45313D1*
X25511D1*
G37*
M02*
